<svg xmlns="http://www.w3.org/2000/svg" width="122" height="30" viewBox="0 0 122 30" fill="none">
    <path d="M32.8126 6.23975H32.2667L26.0981 20.6397H24.8125V24.5067H26.3636V22.1307H38.9961V24.5067H40.5472V20.6517H39.3242L32.8126 6.23975ZM27.8729 20.6397L32.5412 9.50975L37.4629 20.6517L27.8729 20.6397ZM46.7337 10.0647C45.8893 10.0432 45.0505 10.2092 44.2771 10.5509C43.5037 10.8926 42.8148 11.4017 42.2594 12.0417C41.2048 13.1949 40.6304 14.7112 40.6546 16.2777C40.6384 17.8847 41.25 19.4338 42.3578 20.5917C42.928 21.1749 43.608 21.638 44.358 21.9542C45.108 22.2703 45.913 22.4332 46.7263 22.4332C47.5395 22.4332 48.3446 22.2703 49.0946 21.9542C49.8446 21.638 50.5245 21.1749 51.0947 20.5917C52.2004 19.436 52.8118 17.8905 52.7979 16.2867C52.8229 14.7173 52.2486 13.198 51.1931 12.0417C50.6377 11.4046 49.9498 10.8981 49.1782 10.558C48.4065 10.2179 47.57 10.0526 46.7278 10.0737L46.7337 10.0647ZM50.6652 18.6837C50.282 19.3999 49.7076 19.9942 49.0067 20.3997C48.3097 20.7912 47.5246 20.9967 46.7263 20.9967C45.9279 20.9967 45.1429 20.7912 44.4459 20.3997C43.7491 19.9975 43.177 19.4086 42.7933 18.6987C42.3934 17.972 42.1879 17.1533 42.1968 16.3227C42.1853 15.6997 42.2979 15.0807 42.5279 14.5021C42.7579 13.9235 43.1007 13.3971 43.5361 12.9537C43.9472 12.5134 44.4438 12.1624 44.995 11.9225C45.5463 11.6826 46.1405 11.5588 46.7412 11.5588C47.3418 11.5588 47.9361 11.6826 48.4874 11.9225C49.0386 12.1624 49.5351 12.5134 49.9463 12.9537C50.3833 13.3962 50.7276 13.9223 50.9586 14.501C51.1897 15.0797 51.3029 15.6992 51.2916 16.3227C51.2881 17.1558 51.0692 17.9736 50.6562 18.6957L50.6652 18.6837ZM62.5132 15.0327H55.7391V10.3767H54.2476V22.1307H55.7391V16.4697H62.5042V22.1307H63.9957V10.3767H62.5042L62.5132 15.0327ZM71.5364 10.0647C70.692 10.0432 69.8532 10.2092 69.0798 10.5509C68.3064 10.8926 67.6175 11.4017 67.0621 12.0417C66.0078 13.1951 65.4334 14.7112 65.4573 16.2777C65.4418 17.8807 66.0511 19.426 67.1546 20.5827C67.7248 21.1659 68.4047 21.629 69.1547 21.9452C69.9047 22.2613 70.7098 22.4242 71.523 22.4242C72.3362 22.4242 73.1413 22.2613 73.8913 21.9452C74.6413 21.629 75.3212 21.1659 75.8914 20.5827C76.9949 19.426 77.6042 17.8807 77.5887 16.2777C77.6137 14.7083 77.0393 13.189 75.9839 12.0327C75.4286 11.3985 74.7418 10.8943 73.9718 10.5559C73.2019 10.2174 72.3675 10.0528 71.5275 10.0737L71.5364 10.0647ZM75.4679 18.6957C75.0821 19.4079 74.5068 19.9979 73.8064 20.3997C73.1083 20.7928 72.3216 20.9993 71.5215 20.9993C70.7214 20.9993 69.9347 20.7928 69.2366 20.3997C68.5398 19.9975 67.9678 19.4086 67.5841 18.6987C67.1842 17.972 66.9786 17.1533 66.9875 16.3227C66.9729 15.7 67.0822 15.0806 67.3092 14.501C67.5361 13.9214 67.876 13.3933 68.3089 12.9477C68.7203 12.5078 69.2169 12.1572 69.7681 11.9175C70.3194 11.6778 70.9135 11.5542 71.514 11.5542C72.1146 11.5542 72.7087 11.6778 73.2599 11.9175C73.8112 12.1572 74.3078 12.5078 74.7192 12.9477C75.1565 13.3905 75.501 13.9172 75.7321 14.4964C75.9632 15.0757 76.0762 15.6957 76.0644 16.3197C76.0733 17.1503 75.8678 17.969 75.4679 18.6957ZM89.4128 11.8797C88.8684 11.3014 88.2106 10.8429 87.481 10.5331C86.7515 10.2233 85.966 10.0689 85.1742 10.0797C84.2787 10.0668 83.394 10.2782 82.5999 10.6947C81.7872 11.1443 81.0889 11.7767 80.5596 12.5427V10.3827H79.0682V26.4297H80.5596V20.0997C81.1291 20.8241 81.8461 21.4174 82.6626 21.8397C83.7748 22.3787 85.028 22.5502 86.243 22.3298C87.4581 22.1094 88.5727 21.5085 89.4278 20.6127C89.9964 20.0337 90.4438 19.3459 90.7435 18.59C91.0432 17.8341 91.1892 17.0254 91.1727 16.2117C91.1844 15.4077 91.0346 14.6096 90.7322 13.8652C90.4298 13.1208 89.981 12.4455 89.4128 11.8797ZM89.0281 18.6447C88.631 19.3717 88.0469 19.9779 87.3368 20.3997C86.6524 20.8139 85.8684 21.0317 85.0698 21.0297C84.2518 21.0284 83.4485 20.8111 82.7401 20.3997C82.0284 20.0059 81.4413 19.4185 81.0459 18.7047C80.6444 17.9699 80.4388 17.1431 80.4493 16.3047C80.433 15.6765 80.5424 15.0514 80.7709 14.4665C80.9994 13.8816 81.3425 13.3488 81.7796 12.8997C82.2012 12.4536 82.7109 12.1011 83.276 11.865C83.8411 11.6289 84.4491 11.5144 85.0608 11.5287C85.8751 11.5237 86.6755 11.7408 87.3768 12.1571C88.0781 12.5734 88.6539 13.1733 89.043 13.8927C89.4525 14.6163 89.6678 15.4346 89.6678 16.2672C89.6678 17.0999 89.4525 17.9181 89.043 18.6417L89.0281 18.6447Z" fill="#3D4346"/>
    <path d="M101.833 15.8339C101.866 16.6653 101.812 17.4978 101.672 18.3179C101.542 18.8417 101.302 19.3316 100.968 19.7549C100.647 20.1526 100.238 20.4708 99.7752 20.6849C99.3086 20.9057 98.7994 21.0204 98.2837 21.0209C97.6628 21.017 97.0508 20.8713 96.494 20.5949C95.9697 20.3658 95.5156 20.0002 95.1785 19.5359C94.8748 19.063 94.6876 18.5241 94.6327 17.9639C94.5742 17.2565 94.5533 16.5465 94.57 15.8369V6.23989H92.998V15.8399C92.998 17.4539 93.0975 18.5699 93.2963 19.1879C93.597 20.1885 94.2407 21.0495 95.1129 21.6179C96.0822 22.2487 97.2191 22.5688 98.3732 22.5359C99.389 22.5567 100.385 22.2523 101.218 21.6667C102.05 21.0811 102.676 20.2446 103.006 19.2779C103.311 18.1577 103.45 16.9981 103.417 15.8369V6.23989H101.845L101.833 15.8339ZM112.384 6.23389H111.999L104.572 22.1339H106.326L108.775 16.9049H115.549L118.021 22.1339H119.719L112.384 6.23389ZM109.49 15.3629L112.175 9.61189L114.86 15.3629H109.49Z" fill="#3D4346"/>
    <path fill-rule="evenodd" clip-rule="evenodd" d="M15.8935 6.2008C15.9079 5.44722 15.6246 4.71865 15.1057 4.17483C14.5868 3.63102 13.8746 3.31634 13.1254 3.2998H13.0329C12.6611 3.30683 12.2944 3.38745 11.9536 3.53705C11.6128 3.68665 11.3047 3.90231 11.0468 4.17171C10.7889 4.4411 10.5863 4.75896 10.4506 5.10712C10.3149 5.45528 10.2487 5.82691 10.2558 6.2008C10.2558 8.4478 11.4669 8.8048 12.2633 10.5328C12.629 11.4206 12.8786 12.3524 13.0061 13.3048C13.0695 13.2971 13.1336 13.2971 13.197 13.3048C13.2991 12.3524 13.534 11.4193 13.895 10.5328C14.6824 8.8048 15.8935 8.4478 15.8935 6.2008ZM21.3701 7.4698C20.9942 6.9658 21.1792 7.1998 21.3701 7.4698V7.4698ZM13.7727 13.5568C13.8173 13.6041 13.8564 13.6564 13.889 13.7128C14.6853 13.2329 15.5435 12.8655 16.4394 12.6208C18.2291 12.2158 19.2462 12.9958 20.9435 11.6158C21.528 11.1293 21.9044 10.4356 21.9949 9.67796C22.0854 8.92032 21.8831 8.15668 21.4297 7.5448L21.6027 7.7758L21.4297 7.5448L21.388 7.4998L21.373 7.47881C21.1563 7.18036 20.8814 6.92939 20.5652 6.74118C20.2489 6.55296 19.8979 6.43144 19.5335 6.38401C19.169 6.33658 18.7988 6.36424 18.4453 6.46529C18.0919 6.56634 17.7625 6.73867 17.4774 6.9718C15.7801 8.3518 16.2514 9.56981 15.4371 11.2858C14.9937 12.1193 14.4331 12.8842 13.7727 13.5568ZM21.4297 7.5568L21.373 7.4818L21.388 7.5028L21.4297 7.5568ZM23.5177 16.9318L23.5565 16.7308L23.5177 16.9318ZM21.3999 13.1998C19.291 12.7558 18.7153 13.9258 16.9256 14.3998C16.0266 14.5955 15.1034 14.6531 14.1873 14.5708C14.1817 14.6371 14.1687 14.7025 14.1485 14.7658C15.0223 15.0858 15.8483 15.5249 16.6034 16.0708C18.065 17.2258 18.1635 18.5368 20.2724 18.9808C20.6365 19.0535 21.0114 19.052 21.375 18.9766C21.7386 18.9011 22.0835 18.7532 22.3893 18.5415C22.6952 18.3299 22.9558 18.0587 23.1557 17.7441C23.3556 17.4295 23.4909 17.0778 23.5535 16.7098L23.5714 16.6168C23.7258 15.8748 23.5849 15.1014 23.1789 14.4627C22.773 13.8239 22.1343 13.3705 21.3999 13.1998ZM23.5476 16.7158L23.5655 16.6228L23.5476 16.7158ZM23.6042 16.4218L23.5655 16.6198L23.6042 16.4218ZM15.5117 17.5138C14.8018 16.8945 14.1849 16.175 13.6802 15.3778C13.6273 15.4145 13.5702 15.4447 13.5102 15.4678C13.8113 16.3843 13.9928 17.3363 14.0501 18.2998C14.0918 20.2168 13.1701 21.1078 14.1485 23.0998C14.3048 23.437 14.5277 23.7386 14.8037 23.9864C15.0796 24.2342 15.4028 24.4229 15.7536 24.5411C16.1043 24.6592 16.4753 24.7043 16.844 24.6737C17.2127 24.6431 17.5713 24.5373 17.898 24.3628L17.8353 24.3958L17.9696 24.3238L18.0292 24.2908L17.9696 24.3208C18.6315 23.9522 19.1265 23.341 19.3515 22.6145C19.5766 21.8881 19.5143 21.1023 19.1776 20.4208C18.1963 18.4168 16.9643 18.6748 15.5117 17.5138ZM17.7846 24.4138L17.6295 24.4948L17.7846 24.4138ZM9.40273 16.0828C10.1578 15.5369 10.9838 15.0978 11.8576 14.7778C11.8374 14.7145 11.8244 14.6491 11.8189 14.5828C10.9061 14.66 9.98698 14.5983 9.09251 14.3998C7.30278 13.9258 6.74199 12.7558 4.61818 13.1998C3.88344 13.3731 3.24561 13.8293 2.84179 14.4705C2.43796 15.1117 2.30036 15.8867 2.45857 16.6288L2.41084 16.3888L2.47647 16.7218L2.45857 16.6318L2.47647 16.7248C2.53908 17.0928 2.67435 17.4445 2.8743 17.7591C3.07425 18.0737 3.33483 18.3449 3.64065 18.5565C3.94648 18.7682 4.29137 18.9161 4.65496 18.9916C5.01855 19.067 5.39349 19.0685 5.75764 18.9958C7.85461 18.5518 7.95006 17.2408 9.41466 16.0858L9.40273 16.0828ZM2.47647 16.7218C2.53911 17.0578 2.59578 17.3488 2.47647 16.7218V16.7218ZM8.2215 24.4018L8.14992 24.3628L8.2215 24.4018ZM8.42434 24.5098L8.22747 24.4048L8.42434 24.5098ZM8.02762 24.2998L7.84566 24.2008L8.02762 24.2998ZM12.3617 15.3778C11.857 16.175 11.2401 16.8945 10.5303 17.5138C9.06864 18.6718 7.84566 18.4138 6.85833 20.4178C6.52169 21.0993 6.4594 21.8851 6.68444 22.6115C6.90948 23.338 7.40449 23.9492 8.06639 24.3178L8.14693 24.3628L8.08131 24.3268L8.14693 24.3628C8.47311 24.5353 8.83068 24.6395 9.19804 24.6692C9.5654 24.6988 9.93491 24.6532 10.2843 24.5351C10.6336 24.4171 10.9555 24.229 11.2306 23.9823C11.5056 23.7356 11.7281 23.4354 11.8845 23.0998C12.8629 21.0988 11.9412 20.2048 11.9829 18.2998C12.0421 17.336 12.2256 16.384 12.5288 15.4678C12.4698 15.4445 12.4137 15.4143 12.3617 15.3778Z" fill="#3D4346"/>
    <path fill-rule="evenodd" clip-rule="evenodd" d="M4.37402 7.54785C3.92156 8.15951 3.71975 8.92249 3.81022 9.67941C3.90069 10.4363 4.27653 11.1295 4.86023 11.6159C6.5575 12.9959 7.57168 12.2159 9.36439 12.6209C10.2603 12.8655 11.1185 13.2329 11.9148 13.7129C11.9474 13.6565 11.9865 13.6042 12.0311 13.5569C11.37 12.8815 10.8094 12.1135 10.3666 11.2769C9.54635 9.56085 10.0236 8.34585 8.32635 6.96285C8.04121 6.72972 7.71188 6.55739 7.35841 6.45634C7.00493 6.35529 6.63471 6.32763 6.27028 6.37506C5.90584 6.42249 5.55482 6.54401 5.23856 6.73222C4.92231 6.92044 4.64744 7.1714 4.4307 7.46985L4.37402 7.54785Z" fill="#3D4346"/>
</svg>