<svg xmlns="http://www.w3.org/2000/svg" width="100" height="46" viewBox="0 0 100 46" fill="none">
    <path fill-rule="evenodd" clip-rule="evenodd" d="M22.3498 5.85232C21.4937 5.88062 21.4167 5.89753 21.2446 6.09502C21.0681 6.29746 21.0491 6.4168 21.0539 7.29217C21.0563 7.72441 21.0791 8.38537 21.1045 8.76097C21.1628 9.62131 21.1627 10.0393 21.1041 10.7787C21.0668 11.2507 21.0624 11.5141 21.0821 12.1094C21.1198 13.2445 21.1157 14.417 21.0357 25.3677C21.0205 27.4488 21.0186 29.1977 21.0315 29.2542C21.0772 29.4532 21.2562 29.719 21.4093 29.815L21.5119 29.8793L23.5633 29.8964C25.1922 29.9099 25.634 29.9058 25.7081 29.8763C25.8324 29.8267 26.0836 29.5869 26.1513 29.4531C26.2597 29.239 26.2688 29.1028 26.2595 27.8272C26.2475 26.1864 26.2493 26.0741 26.3016 25.1891C26.3505 24.3637 26.3608 24.318 26.5311 24.1733C26.7921 23.9516 27.1555 23.9504 27.5854 24.1699C27.8106 24.2848 27.9814 24.5337 28.3636 25.3034C28.4844 25.5468 28.69 25.936 28.8203 26.1681C29.1914 26.8291 29.3655 27.1724 29.5293 27.5652C29.9005 28.4561 30.113 28.8724 30.4162 29.3021C30.5758 29.5283 30.8663 29.8014 30.9687 29.8213C31.0116 29.8297 31.1035 29.8498 31.1729 29.866C31.4176 29.9231 31.6313 29.9288 32.298 29.8962C32.8479 29.8693 33.1953 29.8718 34.1906 29.9099C34.861 29.9356 35.4706 29.9486 35.5452 29.939C35.8169 29.9037 36.029 29.7642 36.121 29.5603C36.1954 29.3953 36.1928 29.0717 36.1153 28.8377C36.0315 28.585 35.9223 28.3896 34.8606 26.5916C34.3449 25.7183 33.8384 24.8477 33.735 24.6568C33.6316 24.4658 33.4538 24.1547 33.34 23.9654C33.2261 23.7761 33.0453 23.4379 32.9382 23.2137C32.82 22.9664 32.5939 22.5774 32.3631 22.2241C31.9 21.5153 31.7478 21.2173 31.7313 20.9873C31.7175 20.7944 31.752 20.7113 31.9551 20.4486C32.2711 20.0397 32.6138 19.4481 32.9871 18.6667C33.3772 17.85 33.6374 17.1954 34.0681 15.9467C34.1933 15.5839 34.3464 15.1582 34.4085 15.0008C34.5685 14.5944 34.6215 14.3356 34.6218 13.9577C34.6222 13.5802 34.5782 13.4301 34.4188 13.2639C34.1816 13.0168 33.9538 12.9634 33.3475 13.0129C33.115 13.0319 32.2552 13.0569 31.4368 13.0685C29.7861 13.092 29.7747 13.0933 29.5216 13.2879C29.3068 13.4532 29.2411 13.6282 29.0083 14.6563C28.7699 15.7086 28.7188 15.8757 28.4916 16.3445C28.2253 16.8941 27.7288 17.5401 27.471 17.6727C27.3045 17.7582 27.0612 17.7395 26.9192 17.6304C26.7021 17.4636 26.5129 16.9152 26.41 16.1553C26.2962 15.314 26.2905 15.0457 26.2958 10.7996C26.3008 6.73008 26.3002 6.67894 26.2423 6.5153C26.1079 6.13498 25.8657 5.95979 25.363 5.8791C25.1011 5.83707 23.297 5.82103 22.3498 5.85232ZM75.918 6.50945C74.4562 6.58833 73.9669 6.70778 73.8037 7.02555C73.6743 7.2775 73.6689 7.34354 73.6574 8.81345C73.6467 10.1795 73.6481 10.2253 73.7094 10.4726C73.7925 10.8077 73.8641 10.9551 74.0014 11.0734C74.2076 11.2513 74.201 11.2507 76.2214 11.2507C78.2344 11.2507 78.1715 11.2558 78.408 11.0742C78.5235 10.9854 78.7149 10.7072 78.7572 10.5667C78.7763 10.5036 78.795 9.84672 78.8065 8.83993C78.8228 7.40594 78.8197 7.19879 78.7795 7.07704C78.7035 6.84657 78.4685 6.66098 78.1223 6.55806C77.9998 6.52164 77.7831 6.51137 77.0304 6.50636C76.514 6.50293 76.0134 6.50432 75.918 6.50945ZM11.067 12.6804C8.36767 12.8764 6.42491 14.0627 5.0428 16.3589C4.31908 17.5612 3.91431 18.8816 3.7862 20.4581C3.73763 21.0556 3.74508 22.2679 3.80027 22.748C3.98958 24.3948 4.50535 25.6875 5.47842 26.954C5.83907 27.4234 6.66273 28.2477 7.10029 28.5772C7.72063 29.0443 8.41055 29.4195 9.04007 29.6319C10.339 30.0703 13.3292 30.2608 15.1779 30.0228C16.2543 29.8842 17.2995 29.5968 18.0774 29.2255C18.455 29.0452 18.6728 28.8946 18.8764 28.673C19.009 28.5288 19.0515 28.4569 19.0976 28.2991C19.1797 28.0184 19.216 27.5781 19.235 26.6338C19.2584 25.4703 19.2059 25.138 18.9529 24.8484C18.6228 24.4706 18.1004 24.4441 17.2258 24.7607C15.9498 25.2226 15.4579 25.3529 14.9882 25.3534C14.8418 25.3535 14.5595 25.373 14.3608 25.3968C13.9391 25.4472 12.9263 25.4543 12.3786 25.4108C11.552 25.3451 10.9962 25.2096 10.4132 24.9317C9.8503 24.6633 9.46975 24.3775 9.30927 24.1025C9.24692 23.9957 9.23224 23.934 9.23224 23.7791C9.23224 23.6145 9.24354 23.5727 9.31268 23.4813C9.39959 23.3666 9.56284 23.2589 9.76772 23.1813C9.88598 23.1364 10.2373 23.1316 13.9616 23.1239C16.6863 23.1183 18.0815 23.1053 18.1934 23.0844C18.4229 23.0417 18.6933 22.9084 18.8548 22.7584C19.2185 22.4207 19.37 21.9823 19.4066 21.1617C19.4413 20.382 19.3434 19.5994 19.0816 18.5623C18.8618 17.6917 18.6325 17.059 18.316 16.4491C17.9658 15.7746 17.621 15.3046 17.0634 14.7419C15.8271 13.4943 14.5965 12.913 12.7861 12.7215C12.4764 12.6888 11.3293 12.6613 11.067 12.6804ZM44.5688 12.6922C42.4084 12.8403 40.6685 13.4582 39.2524 14.5804C38.9471 14.8224 38.3364 15.4347 38.0737 15.7623C37.4291 16.5661 36.9685 17.4617 36.629 18.5712C36.2508 19.8072 36.1322 20.805 36.2452 21.802C36.3114 22.3873 36.5391 23.8271 36.609 24.1028C36.8505 25.0555 37.3288 25.9555 38.0059 26.7313C38.19 26.9422 39.5014 28.1821 39.9078 28.5295C40.4262 28.9726 41.1397 29.3894 41.8817 29.6826C43.024 30.134 44.1668 30.2946 45.6812 30.2163C47.0802 30.1441 48.0755 29.9948 48.8259 29.7444C49.3758 29.561 50.6633 28.8619 51.15 28.4824C51.3999 28.2877 51.7528 27.9006 52.0791 27.4634C52.2105 27.2873 52.4447 26.986 52.5995 26.7939C53.5362 25.6315 54.0251 24.5239 54.2204 23.1219C54.3308 22.3299 54.3296 21.1785 54.2177 20.4107C54.0913 19.5439 53.7598 18.4115 53.4702 17.858C53.3271 17.5845 52.2556 15.8404 51.9449 15.3753C51.6183 14.8864 51.3121 14.5986 50.6508 14.1586C49.4925 13.3879 48.1655 12.9179 46.6347 12.7361C46.1618 12.6799 45.0828 12.657 44.5688 12.6922ZM74.1989 12.9348C73.8916 13.0255 73.7229 13.1827 73.6585 13.4385C73.5852 13.7291 73.5768 15.7596 73.6387 18.1957C73.7036 20.751 73.7122 25.2398 73.6557 27.1869C73.5913 29.4119 73.6606 29.6674 74.3573 29.7733C74.4885 29.7932 75.1927 29.801 76.3514 29.7954C78.3704 29.7855 78.3251 29.7902 78.581 29.5633C78.8002 29.369 78.8839 29.083 78.9358 28.3511C78.9733 27.8227 78.9712 25.4574 78.9331 25.2221C78.9175 25.1261 78.8941 24.2419 78.8811 23.2574C78.867 22.2009 78.8412 21.2824 78.818 21.0162C78.7885 20.6783 78.7786 19.9287 78.7786 18.0327C78.7785 15.8407 78.7851 15.4378 78.828 15.0346C78.8553 14.7785 78.8861 14.3767 78.8964 14.1418C78.9123 13.783 78.9074 13.6894 78.8659 13.5567C78.7892 13.311 78.637 13.1311 78.4048 13.0117L78.2066 12.9098L77.4813 12.9113C77.0824 12.9121 76.5609 12.9178 76.3225 12.9241C76.0842 12.9303 75.5381 12.9267 75.109 12.9159C74.502 12.9008 74.3001 12.905 74.1989 12.9348ZM59.4922 12.9827C58.9482 13.0029 58.8298 13.0291 58.6196 13.1759C58.4108 13.3216 58.2193 13.6248 58.1337 13.9449C58.0341 14.3175 57.9264 15.2346 57.9031 15.9079C57.8802 16.5722 57.8719 16.6442 57.7341 17.3778C57.5668 18.2679 57.5122 18.6522 57.4694 19.2406C57.4129 20.0161 57.3491 20.4515 57.1195 21.6274C56.8053 23.236 56.4743 24.7282 56.3575 25.062C56.2863 25.2656 56.1773 25.411 56.0592 25.4602C56.0007 25.4845 55.9305 25.5244 55.9032 25.5488C55.8722 25.5766 55.7532 25.6028 55.5854 25.619C55.1251 25.6632 54.9606 25.7677 54.8508 26.0854C54.8036 26.2218 54.7972 26.3321 54.7984 26.9831C54.7992 27.3913 54.8109 28.0685 54.8245 28.488C54.8421 29.0349 54.8383 29.4547 54.811 29.9724C54.7634 30.8736 54.7612 32.1626 54.807 32.3271C54.8619 32.5245 54.9556 32.637 55.1437 32.7318C55.3127 32.8168 55.3279 32.8191 55.7361 32.8186C55.9665 32.8183 56.4841 32.8063 56.8864 32.792C57.4155 32.7732 57.8422 32.7767 58.4296 32.8048C59.331 32.8479 59.4752 32.8356 59.6723 32.6979C59.8214 32.5938 59.9156 32.4243 59.9526 32.1933C59.9693 32.0892 59.9833 31.6504 59.9838 31.2182C59.9846 30.4913 59.9891 30.4225 60.0434 30.3018C60.1176 30.1371 60.1721 30.0767 60.3109 30.0053C60.6483 29.8318 61.286 29.799 64.0284 29.814C66.4873 29.8274 66.5076 29.8288 66.7792 29.9891C66.9506 30.0903 67.1417 30.3098 67.175 30.4436C67.1894 30.5014 67.2096 30.9255 67.22 31.3859C67.2421 32.3642 67.2572 32.4456 67.4501 32.6248C67.6601 32.8197 67.8034 32.8468 68.4629 32.8158C69.1549 32.7833 70.292 32.7826 71.0062 32.8143C71.4648 32.8347 71.5781 32.8315 71.6947 32.7947C72.0349 32.6872 72.1584 32.5069 72.2085 32.0444C72.2468 31.6909 72.2268 29.7757 72.176 28.9333C72.1514 28.5256 72.152 28.2074 72.1785 27.6235C72.2255 26.5859 72.2111 26.2666 72.1068 26.0331C71.9658 25.7177 71.74 25.5675 71.3592 25.5361C71.1708 25.5205 71.1418 25.5095 71.059 25.4217C70.9478 25.3039 70.8116 24.9594 70.7441 24.625C70.7001 24.407 70.6973 24.2926 70.7202 23.6503C70.7345 23.2501 70.7463 21.495 70.7464 19.75C70.7467 17.2133 70.755 16.4927 70.7882 16.1553C70.8471 15.5545 70.8438 14.3433 70.7825 14.0692C70.6839 13.6288 70.4406 13.2997 70.0904 13.1335C69.7138 12.9546 69.5626 12.9497 67.7412 13.0575L66.4699 13.1328L65.6754 13.0726C65.2383 13.0395 64.657 12.9991 64.3835 12.9829C63.8528 12.9515 60.3358 12.9513 59.4922 12.9827ZM87.9521 12.9826C86.5092 13.0029 86.309 13.0184 85.3084 13.1884C84.2638 13.3658 83.4008 13.7002 82.7847 14.1665C82.5154 14.3703 82.0328 14.8395 81.641 15.2784C81.0803 15.9065 80.9745 16.086 80.845 16.6283C80.7982 16.8244 80.6953 17.1695 80.6164 17.3951C80.5375 17.6208 80.4506 17.909 80.4233 18.0355C80.2991 18.6121 80.415 20.057 80.6368 20.696C80.7138 20.9181 81.0481 21.6906 81.1866 21.9664C81.405 22.4015 81.7557 22.8345 82.0606 23.0454C82.1306 23.0938 82.2984 23.189 82.4335 23.2571C82.7913 23.4373 82.9366 23.5537 83.0237 23.7297C83.1071 23.8985 83.1103 23.9247 83.0671 24.0817C83.0108 24.2859 82.7575 24.5059 82.4549 24.6136C82.3291 24.6584 81.6128 24.7805 81.2778 24.8144C80.6158 24.8813 80.3584 25.4372 80.5295 26.4301C80.5915 26.7896 80.5969 26.8973 80.5921 27.6962C80.5893 28.1765 80.5711 28.7618 80.5516 28.9969C80.5059 29.5498 80.519 29.5979 80.7739 29.8171C81.038 30.0443 81.1353 30.0685 81.7814 30.0682C83.136 30.0674 84.1095 29.9038 84.9713 29.532C85.2336 29.4188 85.7363 29.1216 86.0596 28.8885C86.623 28.4822 86.7632 28.3465 87.5459 27.4488C88.5023 26.3519 88.7193 26.1263 88.9856 25.951C89.2601 25.7704 89.4405 25.7039 89.7136 25.6827C90.0163 25.6592 90.2075 25.7077 90.3495 25.8441C90.5421 26.0291 90.5524 26.1065 90.5531 27.3741C90.5539 28.7906 90.5816 29.258 90.6774 29.4687C90.7584 29.6469 90.892 29.7621 91.093 29.8271C91.2068 29.8639 91.3887 29.871 92.1128 29.867C92.5974 29.8643 93.1774 29.8505 93.4015 29.8362C93.6257 29.822 93.9767 29.8174 94.1816 29.8261C94.3866 29.8347 94.7863 29.8283 95.07 29.8118C95.5469 29.7841 95.598 29.7756 95.749 29.6996C96.0209 29.5625 96.149 29.3152 96.219 28.792C96.2824 28.3188 96.2291 26.3904 96.0843 23.9123C95.903 20.8108 95.9103 21.1836 96.0076 19.9974C96.0462 19.5275 96.0549 19.1213 96.0489 18.0857C96.0431 17.0963 96.0521 16.6462 96.0851 16.2679C96.1355 15.6902 96.142 14.8346 96.099 14.4525C96.0324 13.8618 95.835 13.4322 95.5244 13.2025C95.3353 13.0627 95.1922 13.0165 94.8929 12.9986C94.4743 12.9737 89.4207 12.962 87.9521 12.9826ZM11.9924 16.8954C12.4262 16.9249 12.9393 17.1244 13.3319 17.416C13.8565 17.8058 14.2302 18.486 14.1286 18.8661C14.0558 19.1385 13.8913 19.2556 13.5193 19.2996C12.6942 19.3972 10.6498 19.4695 10.2015 19.4169C9.37758 19.3202 9.04894 19.0409 9.13389 18.5096C9.17532 18.2505 9.28249 18.0636 9.54677 17.7898C10.1377 17.1774 10.6181 16.9313 11.3126 16.8849C11.4715 16.8742 11.6405 16.8689 11.6882 16.8731C11.7358 16.8772 11.8727 16.8873 11.9924 16.8954ZM45.5677 17.4539C47.1098 17.7201 48.3852 18.9209 48.7936 20.4911C48.8937 20.8759 48.9178 21.5756 48.8459 22.0088C48.595 23.5206 47.4279 24.7725 46.0098 25.0509C45.669 25.1179 44.9866 25.1178 44.6135 25.0508C43.1948 24.7961 41.9481 23.7296 41.5394 22.4209C41.4179 22.0319 41.3673 21.6566 41.3658 21.1326C41.3636 20.4297 41.4533 20.0357 41.7458 19.4614C42.0953 18.7754 42.6334 18.2537 43.3972 17.86C44.161 17.4665 44.871 17.3336 45.5677 17.4539ZM64.567 17.4918C65.0769 17.5513 65.3254 17.7215 65.4472 18.0945L65.5125 18.2946L65.5319 21.3945C65.5426 23.0995 65.5408 24.5316 65.528 24.5769C65.4538 24.8391 65.2464 25.032 64.9241 25.1385C64.781 25.1858 64.6169 25.192 63.2717 25.2008C61.8109 25.2103 61.7755 25.2091 61.6614 25.1505C61.5398 25.088 61.4568 24.9669 61.4571 24.8525C61.4573 24.8156 61.5028 24.5835 61.5582 24.3367C61.8411 23.0781 62.0453 21.8425 62.1648 20.6669C62.2063 20.2586 62.2724 19.702 62.3117 19.4298C62.3511 19.1577 62.4021 18.765 62.4251 18.5573C62.4481 18.3496 62.4884 18.1109 62.5146 18.027C62.6062 17.7335 62.8419 17.5473 63.1859 17.4964C63.4025 17.4643 64.3066 17.4613 64.567 17.4918ZM89.6354 17.7393C90.0577 17.8207 90.2561 17.9781 90.4596 18.3931L90.567 18.612V19.2974C90.567 20.0492 90.5295 20.3312 90.39 20.6283C90.3035 20.8125 90.2027 20.9025 89.9823 20.9921C89.817 21.0593 89.8077 21.0598 88.7611 21.0514C87.5796 21.042 87.5113 21.0332 87.1287 20.8423C86.8816 20.7191 86.5282 20.4338 86.3882 20.2447C86.2393 20.0435 86.175 19.7742 86.1763 19.357C86.1776 18.9409 86.2045 18.8556 86.4286 18.5566C86.8887 17.9426 87.1695 17.779 87.851 17.7282C88.3864 17.6882 89.4029 17.6945 89.6354 17.7393ZM39.9826 33.844C39.9393 33.8507 39.8766 33.8909 39.8433 33.9335C39.7873 34.0054 39.7836 34.0411 39.7921 34.4291C39.8044 34.9834 39.7758 34.9584 40.3991 34.9584H40.8604L40.9449 34.8734L41.0294 34.7883V34.3661C41.0294 33.9447 41.0292 33.9438 40.9532 33.8836C40.8837 33.8285 40.8418 33.8236 40.4693 33.8276C40.245 33.83 40.0259 33.8374 39.9826 33.844ZM35.2796 34.3953C35.2557 34.4049 35.2062 34.4404 35.1695 34.474C35.104 34.5342 35.1032 34.542 35.123 34.936L35.1432 35.3368H35.0367C34.9622 35.3368 34.909 35.3583 34.8593 35.4083C34.7911 35.477 34.7884 35.4944 34.7884 35.8701C34.7884 36.2209 34.7945 36.2682 34.8483 36.3371C34.8812 36.3793 34.9258 36.4138 34.9473 36.4138C34.9689 36.4138 35.0069 36.4344 35.0319 36.4595C35.0714 36.4993 35.0773 36.6346 35.0773 37.5013C35.0773 38.5717 35.0893 38.6844 35.2334 38.9684C35.3142 39.1276 35.4605 39.2783 35.5776 39.3227C35.6223 39.3397 35.8304 39.3533 36.0399 39.353C36.4505 39.3523 36.5893 39.3164 36.7098 39.18C36.7623 39.1205 36.7671 39.0777 36.7622 38.7118C36.7593 38.4903 36.7431 38.283 36.7262 38.2512C36.6947 38.192 36.6846 38.1872 36.4702 38.1314C36.3801 38.1079 36.3385 38.079 36.3185 38.0259C36.2821 37.9295 36.283 36.8071 36.3196 36.6744C36.3648 36.5106 36.4073 36.4754 36.6087 36.4347C36.8505 36.3859 36.8644 36.3572 36.8716 35.8941C36.8765 35.5772 36.8706 35.5279 36.8195 35.4586C36.7725 35.395 36.7354 35.3791 36.6202 35.3729C36.3351 35.3576 36.3555 35.3902 36.3442 34.9302C36.3305 34.3746 36.3502 34.393 35.7627 34.3843C35.5208 34.3807 35.3034 34.3857 35.2796 34.3953ZM12.6994 35.2801C12.0865 35.362 11.7782 35.4947 11.4929 35.7993C11.386 35.9136 11.2658 36.0804 11.2148 36.1853C10.9712 36.687 10.9201 37.4339 11.0846 38.0875C11.1534 38.3607 11.335 38.7105 11.4912 38.8704C11.6558 39.039 11.9543 39.2409 12.1593 39.3223C12.4224 39.4267 13.0645 39.4759 13.3012 39.4097C13.471 39.3622 13.4922 39.2816 13.4735 38.7569C13.4649 38.5168 13.4479 38.3092 13.4356 38.2956C13.4232 38.282 13.3127 38.2595 13.1898 38.2457C12.512 38.1691 12.0662 37.5986 12.2329 37.021C12.3374 36.6588 12.5024 36.544 12.9896 36.4943C13.2608 36.4667 13.3119 36.4528 13.3825 36.3873L13.4636 36.3119L13.4703 35.882C13.477 35.4541 13.4767 35.4517 13.4021 35.3766C13.2869 35.2605 13.0695 35.2306 12.6994 35.2801ZM31.249 35.2956C30.9257 35.3459 30.6224 35.4369 30.4614 35.5319C30.2705 35.6446 30.0085 35.9304 29.893 36.1518C29.7096 36.5033 29.6638 36.7339 29.6646 37.3016C29.6654 37.8726 29.7091 38.0908 29.9061 38.5058C30.0451 38.7987 30.2547 39.0168 30.5732 39.1997C30.8803 39.3761 31.0818 39.4214 31.5716 39.4241C31.9665 39.4263 31.9835 39.4239 32.0555 39.3558C32.1299 39.2855 32.1302 39.2833 32.1302 38.8117C32.1302 38.3554 32.1279 38.3365 32.066 38.2929C32.0307 38.2679 31.9473 38.2475 31.8808 38.2475C31.7107 38.2475 31.4409 38.1568 31.2806 38.0457C30.7062 37.6476 30.7315 36.7153 31.3212 36.5496C31.4086 36.5251 31.5883 36.4961 31.7206 36.4853C31.9103 36.4697 31.977 36.4517 32.0368 36.3999C32.111 36.3356 32.1128 36.3257 32.1244 35.9011C32.1356 35.494 32.1327 35.4631 32.0753 35.3901C31.967 35.2525 31.7127 35.2235 31.249 35.2956ZM5.97149 35.3247C5.50174 35.4393 5.07464 35.7979 4.84361 36.2718C4.64713 36.6748 4.61084 36.8438 4.61 37.3598C4.60937 37.7649 4.61541 37.8151 4.69388 38.0563C4.90651 38.7099 5.4851 39.2445 6.10171 39.357C6.41792 39.4147 7.30321 39.4088 7.54343 39.3474C7.83542 39.2727 8.03918 39.1879 8.14935 39.0953L8.24987 39.0108L8.25932 38.6155C8.26862 38.2256 8.26778 38.2193 8.19561 38.1466C8.09699 38.0472 7.98824 38.0516 7.67091 38.1675C7.41583 38.2607 7.40442 38.2621 6.90633 38.2621C6.4126 38.2621 6.39662 38.2602 6.22742 38.1804C6.01067 38.0781 5.92396 37.9974 5.92396 37.8979C5.92396 37.7607 5.98602 37.7527 7.0536 37.7527C8.13944 37.7527 8.15929 37.7497 8.2566 37.5703C8.33008 37.4349 8.32118 36.9722 8.23912 36.6612C8.1356 36.2688 7.9978 36.0232 7.73251 35.7581C7.47769 35.5035 7.29243 35.3952 6.98795 35.3229C6.75727 35.2681 6.19957 35.2691 5.97149 35.3247ZM17.8858 35.2988C17.4499 35.3726 17.0614 35.5603 16.7734 35.8362C16.5392 36.0605 16.4051 36.2699 16.2949 36.5838C16.1729 36.9311 16.1393 37.2003 16.1794 37.5083C16.2716 38.2168 16.3746 38.418 16.8846 38.8861C17.3496 39.3129 17.77 39.4613 18.4203 39.4283C18.611 39.4187 18.853 39.3924 18.958 39.37C19.1813 39.3224 19.5704 39.1332 19.7234 38.9979C19.879 38.8603 20.2101 38.4183 20.2982 38.2307C20.5048 37.7909 20.5072 37.127 20.304 36.6204C20.1999 36.3606 19.8651 35.8487 19.7146 35.7191C19.3788 35.43 18.8892 35.2768 18.3192 35.2828C18.1206 35.2848 17.9255 35.292 17.8858 35.2988ZM24.2944 35.3253C24.051 35.3779 23.6298 35.5539 23.5591 35.6326C23.5133 35.6835 23.5041 35.7527 23.4957 36.1085C23.4864 36.4993 23.4895 36.5286 23.5462 36.5858C23.6247 36.6648 23.7253 36.6628 24.0025 36.5765C24.4325 36.4427 24.5512 36.415 24.8319 36.3835C25.3152 36.3292 25.6292 36.4432 25.6292 36.6728C25.6292 36.7727 25.5396 36.7968 25.3053 36.7598C25.0385 36.7177 24.4032 36.7447 24.1719 36.8081C23.4656 37.0016 23.0893 37.5661 23.1977 38.2695C23.2841 38.8296 23.6493 39.2357 24.1734 39.3545C24.3714 39.3994 25.1244 39.4028 25.2713 39.3595C25.3367 39.3402 25.438 39.2917 25.4965 39.2517C25.555 39.2117 25.6125 39.179 25.6243 39.179C25.636 39.179 25.6698 39.2202 25.6994 39.2707L25.7532 39.3623L26.1821 39.3446C26.618 39.3265 26.7037 39.3067 26.7541 39.2118C26.7915 39.1413 26.8187 36.9071 26.7875 36.4653C26.758 36.0469 26.6875 35.8783 26.4514 35.6609C26.2592 35.4839 26.0545 35.3796 25.7876 35.3227C25.5169 35.2649 24.5657 35.2665 24.2944 35.3253ZM45.5223 35.3253C44.7523 35.4965 44.2418 35.9795 44.0215 36.7456C43.8883 37.2084 43.9414 37.8375 44.1497 38.2659C44.2489 38.4699 44.309 38.5452 44.5854 38.812C44.9589 39.1726 45.2142 39.3171 45.6233 39.3996C46.0811 39.4919 46.7599 39.4137 47.1403 39.2248C47.4249 39.0835 47.5269 38.9973 47.7629 38.6987C48.1445 38.2159 48.2375 37.9383 48.2164 37.3452C48.2062 37.0591 48.1877 36.9331 48.1299 36.7554C48.0338 36.4602 47.6929 35.9087 47.4967 35.731C47.3324 35.5822 47.029 35.4238 46.7647 35.3489C46.5175 35.2788 45.7933 35.2651 45.5223 35.3253ZM52.9767 35.3266C52.8655 35.3503 52.709 35.4067 52.6289 35.4519L52.4834 35.5341L52.3765 35.4355L52.2697 35.3368H51.7537C51.2657 35.3368 51.2346 35.3402 51.1826 35.3981C51.1297 35.457 51.1275 35.5339 51.1247 37.3527C51.122 39.1575 51.1244 39.2485 51.1753 39.2998C51.2234 39.3482 51.2817 39.3536 51.7577 39.3536C52.169 39.3536 52.2992 39.3444 52.3428 39.3123C52.3965 39.2727 52.3989 39.2254 52.4005 38.1844C52.4025 36.8733 52.4198 36.777 52.6766 36.645C52.9054 36.5274 53.2054 36.6118 53.3144 36.8244C53.4403 37.07 53.461 37.3002 53.4435 38.2588C53.425 39.279 53.4294 39.3064 53.616 39.3416C53.7702 39.3708 54.5287 39.3388 54.6005 39.3001C54.6346 39.2817 54.6756 39.2241 54.6918 39.1719C54.7515 38.9791 54.7428 36.819 54.6808 36.4596C54.6264 36.1442 54.4952 35.8867 54.2791 35.6712C53.9331 35.3261 53.5069 35.2133 52.9767 35.3266ZM63.5517 35.3267C62.7746 35.4934 62.247 35.9969 62.0313 36.7776C61.9124 37.2077 61.9735 37.8666 62.1694 38.2683C62.2531 38.4401 62.3311 38.5362 62.5978 38.7964C62.9776 39.167 63.2461 39.3228 63.6384 39.4003C63.9062 39.4532 64.4343 39.4382 64.7615 39.3684C65.0158 39.3142 65.351 39.1472 65.5288 38.9862C65.7077 38.8241 66.0109 38.4214 66.0997 38.228C66.2732 37.8498 66.2986 37.2426 66.1606 36.7776C66.0743 36.4871 65.7257 35.9118 65.5268 35.7316C65.3462 35.568 65.0261 35.4116 64.7219 35.3382C64.4229 35.2662 63.86 35.2606 63.5517 35.3267ZM75.3581 35.3212C74.6205 35.4612 74.1411 36.1313 74.1411 37.0221C74.1411 37.3353 74.1801 37.5419 74.2763 37.7374C74.3835 37.9555 74.6258 38.2701 74.7828 38.3951C74.9554 38.5326 75.2925 38.6415 75.6913 38.6886C75.9925 38.7242 76.1643 38.7013 76.4774 38.5839C76.5737 38.5478 76.6128 38.5446 76.6435 38.5703C76.7456 38.6557 76.639 38.8913 76.4585 38.9794C76.3404 39.037 76.2985 39.0405 75.9041 39.0264C75.4777 39.0112 75.4771 39.0111 75.0043 38.8476C74.7441 38.7576 74.4974 38.6841 74.4562 38.6841C74.3037 38.6842 74.2756 38.7618 74.2637 39.2165C74.2508 39.71 74.269 39.7558 74.5349 39.8986C74.9701 40.1322 75.4996 40.2048 76.3235 40.1436C77.1103 40.0852 77.5514 39.8695 77.7698 39.4362L77.848 39.2808L77.8608 37.3889L77.8735 35.4969L77.8059 35.4352C77.7454 35.3799 77.6926 35.3717 77.3002 35.3564C76.9302 35.342 76.8564 35.3462 76.8258 35.3834C76.742 35.4851 76.6925 35.486 76.5045 35.3891C76.3305 35.2995 76.3062 35.2951 75.9469 35.288C75.7162 35.2835 75.4891 35.2963 75.3581 35.3212ZM92.8929 35.324C92.6565 35.3752 92.2189 35.558 92.1506 35.634C92.1073 35.6822 92.0972 35.7587 92.0883 36.1077C92.0782 36.4998 92.0811 36.5275 92.1385 36.5853C92.2227 36.6701 92.2992 36.6632 92.7602 36.5293C93.2864 36.3764 93.6577 36.3337 93.9086 36.3972C94.1096 36.448 94.222 36.5429 94.222 36.6618C94.222 36.7695 94.1379 36.7986 93.9264 36.764C93.6641 36.7211 93.2283 36.7273 92.9328 36.778C92.1326 36.9154 91.6837 37.4922 91.7896 38.2469C91.8699 38.8189 92.2363 39.2344 92.7663 39.3545C92.9642 39.3994 93.7172 39.4027 93.8641 39.3595C93.9294 39.3402 94.0308 39.2917 94.0893 39.2517C94.1478 39.2117 94.2053 39.179 94.217 39.179C94.2288 39.179 94.2626 39.2202 94.2921 39.2707L94.3459 39.3623L94.7749 39.3446C95.2145 39.3264 95.2963 39.307 95.3487 39.2083C95.3884 39.1335 95.414 36.916 95.3805 36.4625C95.3496 36.0452 95.279 35.8772 95.0442 35.6609C94.8519 35.4839 94.6473 35.3796 94.3804 35.3227C94.1129 35.2656 93.1583 35.2664 92.8929 35.324ZM39.9314 35.3306C39.9076 35.3382 39.8653 35.3644 39.8375 35.3888C39.7903 35.4302 39.7869 35.5594 39.7869 37.3206C39.7869 39.1693 39.7881 39.2093 39.8447 39.2663C39.8981 39.3201 39.941 39.3245 40.4081 39.3245C40.9884 39.3245 41.0097 39.3163 41.0451 39.0786C41.056 39.0051 41.0498 38.3526 41.0314 37.6285C41.0086 36.7357 41.0069 36.1867 41.026 35.9229C41.0697 35.3219 41.0751 35.3274 40.442 35.3214C40.185 35.3188 39.9552 35.323 39.9314 35.3306ZM70.9668 35.339C70.9293 35.3541 70.8009 35.4456 70.6816 35.5423C70.5623 35.639 70.4435 35.7141 70.4176 35.7091C70.3832 35.7026 70.3681 35.6613 70.3615 35.5556C70.3565 35.4761 70.3386 35.3944 70.3218 35.3739C70.2993 35.3467 70.1676 35.3368 69.8244 35.3368C69.3053 35.3368 69.2552 35.3516 69.2057 35.5188C69.1903 35.5708 69.1767 35.9998 69.1754 36.472C69.1734 37.2428 69.1494 38.7824 69.137 38.9316C69.1232 39.0996 69.1467 39.1876 69.227 39.2685L69.3115 39.3536H69.7191C70.1822 39.3536 70.3077 39.321 70.3587 39.1876C70.3793 39.1339 70.3866 38.8237 70.3802 38.2766C70.3706 37.4555 70.3712 37.4456 70.4392 37.2941C70.5533 37.0397 70.8417 36.8418 71.153 36.8044C71.5252 36.7597 71.5407 36.7279 71.5407 36.0064C71.5407 35.4551 71.5401 35.45 71.4698 35.3792C71.409 35.3179 71.3729 35.308 71.2169 35.3096C71.1169 35.3106 71.0044 35.3238 70.9668 35.339ZM85.3564 35.4378L85.2628 35.5451L85.2712 37.0498L85.2795 38.5545L85.3727 38.7452C85.4959 38.9973 85.7415 39.2348 85.9669 39.3197C86.2766 39.4365 86.7971 39.3956 87.1801 39.2245C87.4049 39.124 87.4577 39.1287 87.5663 39.259L87.6572 39.3682L88.1152 39.3764C88.5306 39.3839 88.582 39.3793 88.6657 39.3268C88.79 39.249 88.8248 39.1109 88.7959 38.8098C88.7829 38.6744 88.7884 38.301 88.8089 37.9241C88.8284 37.5657 88.8451 36.8691 88.8461 36.3761L88.8478 35.4797L88.7776 35.409C88.7084 35.3393 88.7011 35.3384 88.2293 35.3448C87.7571 35.3513 87.7501 35.3524 87.6762 35.4269C87.5673 35.5366 87.5463 35.6781 87.5817 36.0635C87.6178 36.4565 87.5956 37.5714 87.5486 37.73C87.469 37.9986 87.2327 38.1469 86.9048 38.1342C86.7921 38.1298 86.6136 37.9559 86.5353 37.7743L86.4695 37.6217L86.5053 36.5479C86.5409 35.475 86.5409 35.474 86.4808 35.4134C86.4256 35.3578 86.3803 35.3519 85.9353 35.3416L85.45 35.3304L85.3564 35.4378ZM6.7846 36.3618C6.97518 36.4514 7.09928 36.6701 7.0258 36.7868C6.99818 36.8307 6.32159 36.8895 6.1551 36.8624C5.94947 36.829 5.89506 36.7931 5.89506 36.6907C5.89506 36.5788 5.97186 36.4718 6.11705 36.3814C6.31234 36.2598 6.55273 36.2527 6.7846 36.3618ZM18.5692 36.4762C19.1346 36.6893 19.3359 37.4383 18.9533 37.9056C18.5629 38.3823 17.7599 38.2553 17.4785 37.6723C17.4256 37.5626 17.4117 37.4839 17.4105 37.287C17.4092 37.0628 17.4174 37.0246 17.4986 36.8795C17.7165 36.4899 18.1611 36.3224 18.5692 36.4762ZM46.3976 36.498C46.5881 36.596 46.7393 36.7502 46.8359 36.9448C46.9933 37.2623 46.9452 37.6497 46.7155 37.9126C46.5429 38.1101 46.3558 38.1958 46.0972 38.1958C45.6387 38.1958 45.2635 37.8845 45.1948 37.4471C45.1201 36.9716 45.3558 36.5951 45.8256 36.4393C45.9526 36.3971 46.2636 36.4291 46.3976 36.498ZM64.3659 36.4765C64.4787 36.519 64.58 36.5873 64.6804 36.6884C65.2334 37.2455 64.8852 38.1966 64.1284 38.1966C63.8723 38.1966 63.6802 38.123 63.4974 37.9546C63.29 37.7636 63.2094 37.578 63.2069 37.285C63.2052 37.0951 63.217 37.041 63.2922 36.8929C63.4928 36.4976 63.9507 36.32 64.3659 36.4765ZM76.3535 36.5239C76.5563 36.6281 76.6548 36.8006 76.6548 37.0513C76.6548 37.4219 76.4307 37.6174 76.0025 37.6202C75.7922 37.6216 75.7553 37.6131 75.6291 37.5344C75.4564 37.4267 75.3545 37.2493 75.3549 37.0569C75.3552 36.8977 75.4803 36.6557 75.6047 36.5736C75.8154 36.4346 76.1381 36.4131 76.3535 36.5239ZM25.3235 37.7265C25.486 37.772 25.6003 37.8967 25.6003 38.0285C25.6003 38.3003 25.4198 38.4086 25.0017 38.3875C24.6684 38.3706 24.494 38.2964 24.4464 38.1513C24.3822 37.9553 24.5119 37.7867 24.7769 37.7217C24.9108 37.6889 25.1979 37.6914 25.3235 37.7265ZM93.9105 37.7249C93.9696 37.7414 94.0573 37.7884 94.1055 37.8292C94.1788 37.8914 94.1931 37.9245 94.1931 38.0329C94.1931 38.3032 94.0136 38.4092 93.5945 38.3866C93.273 38.3692 93.1031 38.3029 93.0497 38.1742C92.9995 38.0533 93.0419 37.8866 93.1391 37.8224C93.314 37.7069 93.6806 37.6606 93.9105 37.7249ZM57.8635 38.1169C57.8013 38.1796 57.7846 38.3502 57.7958 38.8089C57.8092 39.3536 57.7749 39.3245 58.4263 39.3453C59.097 39.3667 59.0545 39.4033 59.0784 38.7836C59.0883 38.5261 59.0877 38.2808 59.0772 38.2383C59.0421 38.0977 58.9402 38.0729 58.3977 38.0729C57.9985 38.0729 57.899 38.0811 57.8635 38.1169ZM80.9772 38.1358C80.9392 38.1905 80.931 38.2911 80.931 38.702C80.931 39.3802 80.8814 39.3313 81.5741 39.3357C81.9801 39.3382 82.1215 39.3298 82.15 39.3013C82.1778 39.2736 82.1903 39.1218 82.1969 38.7325C82.2085 38.039 82.2593 38.0905 81.5522 38.0784C81.0296 38.0695 81.0229 38.0701 80.9772 38.1358Z" fill="#3D4346"/>
</svg>