<svg xmlns="http://www.w3.org/2000/svg" width="102" height="36" viewBox="0 0 102 36" fill="none">
    <path d="M30.167 10.904L26.5872 14.4704C26.5131 14.5444 26.4206 14.5976 26.3192 14.6245C26.2178 14.6513 26.111 14.6509 26.0098 14.6233C25.9086 14.5957 25.8165 14.5418 25.743 14.4672C25.6694 14.3926 25.617 14.2999 25.5911 14.1985L24.8562 11.3025C24.8095 11.12 24.7142 10.9534 24.5803 10.8204C24.4465 10.6874 24.2791 10.5929 24.0959 10.5469L21.3226 9.85571C21.2205 9.8301 21.127 9.77788 21.0518 9.70439C20.9765 9.6309 20.9223 9.5388 20.8945 9.43751C20.8668 9.33623 20.8665 9.22941 20.8938 9.128C20.9211 9.0266 20.975 8.93425 21.0499 8.86044L24.5904 5.3263C24.6607 5.25625 24.7473 5.2048 24.8426 5.17664C24.9378 5.14847 25.0386 5.14448 25.1358 5.16503L29.0438 5.99903C29.1575 6.02262 29.2618 6.0788 29.3439 6.16065C29.426 6.2425 29.4824 6.34648 29.506 6.4598L30.3311 10.3764C30.3486 10.471 30.3428 10.5684 30.3142 10.6603C30.2857 10.7522 30.2351 10.8358 30.167 10.904Z" fill="#3D4346"/>
    <path d="M34.4525 22.829L22.2224 35.0211C22.094 35.1489 21.9345 35.2414 21.7595 35.2895C21.5845 35.3375 21.4 35.3395 21.224 35.2952L18.7535 34.6732L27.5563 25.8977C27.8441 26.0249 28.1592 26.0783 28.473 26.053C28.7868 26.0278 29.0893 25.9248 29.353 25.7533C29.6166 25.5818 29.8331 25.3473 29.9827 25.0712C30.1322 24.795 30.2102 24.486 30.2094 24.1721C30.2161 23.6785 30.0281 23.202 29.6857 22.8453C29.3434 22.4885 28.8742 22.2802 28.3792 22.265C27.8842 22.2499 27.4031 22.4293 27.0395 22.7645C26.6759 23.0997 26.459 23.5638 26.4354 24.0569C26.4165 24.3377 26.4624 24.6191 26.5695 24.8794L17.1542 34.27L4.90567 31.1851C4.72458 31.137 4.55978 31.0412 4.42847 30.9079C4.29717 30.7746 4.20417 30.6085 4.1592 30.4271L0.0316657 14.1687C-0.0134245 13.993 -0.0117747 13.8085 0.0364523 13.6336C0.0846794 13.4586 0.177818 13.2993 0.306681 13.1712L12.5368 0.979078C12.6652 0.851195 12.8247 0.758708 12.9997 0.710655C13.1746 0.662601 13.3591 0.660624 13.5351 0.704918L16.1096 1.36382L12.063 5.38638C11.6891 5.22948 11.2745 5.19678 10.8806 5.29311C10.4866 5.38945 10.1343 5.6097 9.87568 5.92125C9.61709 6.2328 9.46602 6.61909 9.44484 7.02291C9.42366 7.42673 9.5335 7.82661 9.75809 8.16335C9.98268 8.50008 10.3101 8.75576 10.6918 8.89252C11.0735 9.02929 11.4893 9.03986 11.8775 8.92268C12.2658 8.8055 12.6058 8.5668 12.8473 8.24192C13.0889 7.91705 13.219 7.52327 13.2185 7.11889C13.219 6.86629 13.1679 6.61624 13.0683 6.38396L17.4593 2.01812C17.5399 1.93799 17.6399 1.87997 17.7497 1.8497C17.8594 1.81943 17.9751 1.81792 18.0856 1.84533L22.2108 2.88899C22.3236 2.9172 22.4269 2.97478 22.51 3.05585C22.5932 3.13691 22.6532 3.23855 22.684 3.35035C22.7148 3.46215 22.7153 3.5801 22.6853 3.69213C22.6554 3.80416 22.5961 3.90624 22.5136 3.98793L17.8452 8.64175C17.765 8.72167 17.6653 8.77941 17.5559 8.8093C17.4465 8.83919 17.3312 8.8402 17.2213 8.81224L15.4834 8.3745C15.3074 8.33021 15.1229 8.33218 14.9479 8.38024C14.7729 8.42829 14.6134 8.52078 14.485 8.64866L8.01404 15.111C7.88253 15.2376 7.78648 15.3962 7.73541 15.5712C7.68433 15.7462 7.68 15.9314 7.72284 16.1086L9.45382 22.928L13.8448 18.5622C13.9052 18.5012 13.9772 18.4527 14.0565 18.4197C14.1359 18.3866 14.221 18.3696 14.307 18.3696C14.393 18.3696 14.4782 18.3866 14.5575 18.4197C14.6369 18.4527 14.7088 18.5012 14.7692 18.5622L16.9994 20.7854C17.0609 20.8455 17.1097 20.9172 17.1431 20.9963C17.1764 21.0754 17.1936 21.1604 17.1936 21.2462C17.1936 21.332 17.1764 21.417 17.1431 21.4961C17.1097 21.5752 17.0609 21.6469 16.9994 21.707L12.7101 25.9669L19.2781 27.6279C19.4544 27.6722 19.6393 27.6702 19.8146 27.6222C19.99 27.5741 20.1499 27.4817 20.2788 27.3538L26.7497 20.9029C26.8828 20.775 26.9796 20.6143 27.0303 20.4371C27.081 20.2599 27.0839 20.0725 27.0386 19.8939L26.6365 18.3019C26.6076 18.1895 26.6087 18.0715 26.6395 17.9596C26.6703 17.8477 26.7298 17.7457 26.8121 17.6637L31.455 13.0352C31.5386 12.9501 31.6435 12.8887 31.7589 12.8576C31.8743 12.8264 31.9959 12.8266 32.1112 12.8581C32.2265 12.8896 32.3312 12.9513 32.4145 13.0367C32.4979 13.1221 32.5568 13.2282 32.5851 13.3439L34.739 21.8337C34.782 22.0101 34.7782 22.1947 34.728 22.3692C34.6777 22.5437 34.5828 22.7021 34.4525 22.829Z" fill="#3D4346"/>
    <path d="M21.3579 16.3525C21.3579 16.8081 21.2224 17.2535 20.9685 17.6324C20.7145 18.0113 20.3536 18.3066 19.9313 18.481C19.509 18.6553 19.0443 18.7009 18.596 18.6121C18.1477 18.5232 17.7359 18.3037 17.4127 17.9815C17.0895 17.6593 16.8694 17.2488 16.7802 16.8019C16.6911 16.355 16.7368 15.8918 16.9118 15.4708C17.0867 15.0498 17.3829 14.69 17.7629 14.4369C18.143 14.1837 18.5898 14.0486 19.0469 14.0486C19.6598 14.0486 20.2476 14.2913 20.681 14.7234C21.1145 15.1554 21.3579 15.7414 21.3579 16.3525Z" fill="#3D4346"/>
    <path d="M59.6041 12.6527C60.7365 12.6527 61.8297 12.6181 62.9159 12.6896C63.0961 12.6896 63.2487 13.178 63.4497 13.5005C63.6069 13.4038 63.8172 13.2701 64.0321 13.1457C66.1768 11.9362 68.363 11.9178 70.5031 13.0651C71.9521 13.8392 72.613 15.2054 72.8141 16.7766C73.0729 18.7119 72.9782 20.6103 71.7811 22.2644C70.5031 24.0315 68.6727 24.5338 66.5951 24.3725C65.3877 24.3007 64.2401 23.8241 63.3388 23.0201C63.2918 23.2388 63.2601 23.4605 63.244 23.6836C63.2787 24.8678 63.3134 26.0543 63.3711 27.2385C63.3942 27.6831 63.3226 27.9504 62.7818 27.9297C61.8944 27.8997 61.0046 27.9135 60.1172 27.9297C59.6989 27.9297 59.4909 27.8214 59.6249 27.3537C59.6788 27.1274 59.7006 26.8948 59.6896 26.6625C59.6896 22.3727 59.6896 18.0829 59.6896 13.7931C59.6896 13.4498 59.6411 13.1135 59.6041 12.6527ZM65.9387 21.6147C67.8269 21.6147 68.7536 20.9236 69.1234 19.5413C69.2118 19.1805 69.269 18.8128 69.2944 18.4423C69.44 16.9563 68.7051 15.6339 67.4825 15.233C66.26 14.8322 65.1067 15.0326 64.2101 16.0071C63.1955 17.113 63.0222 18.417 63.6092 19.7693C64.1292 20.9766 65.1021 21.5871 65.9387 21.6147Z" fill="#3D4346"/>
    <path d="M77.4718 13.6891C78.4517 13.2606 79.3461 12.7261 80.3144 12.4911C81.1345 12.3137 81.9833 12.3137 82.8034 12.4911C84.6268 12.8574 85.6483 14.1545 85.6783 16.0137C85.7107 18.0411 85.6783 20.0685 85.6968 22.0959C85.7026 22.5839 85.7396 23.071 85.8077 23.5543C85.8771 24.0657 85.7823 24.3537 85.1722 24.3284C84.331 24.2915 83.4875 24.2938 82.6462 24.3284C82.0846 24.3514 81.9922 24.098 82.0084 23.6073C82.0685 21.6305 82.1116 19.653 82.1378 17.6748C82.1494 16.8753 82.1517 16.0045 81.2735 15.6243C80.3953 15.2442 79.5402 15.4608 78.7706 16.0206C77.8739 16.6703 77.3077 17.4398 77.384 18.6493C77.5041 20.3196 77.481 21.9992 77.5388 23.6718C77.5527 24.0911 77.4718 24.3376 76.9772 24.3261C76.0898 24.303 75.2 24.3053 74.3126 24.3261C73.7857 24.3261 73.6724 24.1095 73.7556 23.6349C73.8249 23.2223 73.8574 22.8045 73.8527 22.3862C73.8527 18.2822 73.8527 14.1806 73.8527 10.0812C73.843 9.66313 73.8067 9.24606 73.7441 8.83253C73.6978 8.47543 73.818 8.30725 74.1924 8.31186C75.1515 8.31186 76.1106 8.31186 77.0674 8.31186C77.6428 8.31186 77.5296 8.68969 77.5157 9.03988C77.4787 10.5512 77.451 12.0626 77.4233 13.5739C77.4302 13.6407 77.4741 13.7029 77.4718 13.6891Z" fill="#3D4346"/>
    <path d="M49.9828 13.9171C50.3133 13.6867 50.5513 13.5416 50.7686 13.3734C52.2453 12.2215 53.9162 12.1408 55.6218 12.5647C57.1725 12.9495 58.1524 14.3641 58.1639 16.0943C58.1847 18.1931 58.1755 20.2896 58.1801 22.3884C58.1801 22.6672 58.1801 22.9483 58.2055 23.227C58.3118 24.3283 58.3141 24.3283 57.2326 24.3283C56.5531 24.3283 55.8737 24.3006 55.1988 24.3283C54.6419 24.3582 54.4709 24.1555 54.4893 23.6026C54.5541 21.6259 54.5841 19.6468 54.6049 17.6678C54.6049 16.8684 54.628 15.986 53.7475 15.6174C53.3457 15.4502 52.9058 15.3958 52.4752 15.46C52.0447 15.5241 51.6399 15.7044 51.3047 15.9814C50.4057 16.6541 49.7933 17.4213 49.8834 18.6654C50.0082 20.3587 49.9828 22.0613 50.0336 23.7592C50.0452 24.1256 49.9528 24.3352 49.5368 24.3306C48.6123 24.3306 47.6671 24.3145 46.7311 24.3306C46.2689 24.3306 46.2227 24.0749 46.2273 23.6993C46.2736 20.4739 46.3313 17.2255 46.3313 13.9885C46.3313 12.6546 46.2713 12.6546 47.6232 12.6546C48.0854 12.6546 48.5615 12.6891 49.026 12.6546C49.6592 12.597 50.0267 12.756 49.9065 13.4794C49.9153 13.6277 49.9409 13.7745 49.9828 13.9171Z" fill="#3D4346"/>
    <path d="M96.6865 15.6778H92.0968C92.0968 14.7148 92.0783 13.7909 92.1199 12.8671C92.1199 12.7449 92.4319 12.5376 92.5983 12.5376C95.4686 12.556 98.3397 12.5967 101.212 12.6597C101.317 12.6885 101.414 12.7439 101.492 12.8205C101.57 12.8972 101.627 12.9925 101.658 13.0974C101.721 13.7233 101.721 14.3539 101.658 14.9797C101.623 15.2654 101.376 15.5488 101.17 15.7861C99.714 17.4518 98.2396 19.1059 96.779 20.7693C96.6687 20.9255 96.5713 21.0904 96.4878 21.2624C96.8529 21.2877 97.1187 21.3269 97.3845 21.32C98.7364 21.2877 100.091 21.2508 101.44 21.1955C101.829 21.1817 102.004 21.313 101.997 21.7093C101.986 22.3843 101.967 23.0617 101.997 23.7344C102.027 24.2896 101.824 24.4578 101.269 24.444C98.6093 24.3864 95.9539 24.3634 93.2847 24.3288H93.146C92.6838 24.3288 91.9581 24.4947 91.8356 24.2942C91.6045 23.9095 91.7455 23.3151 91.6854 22.8129C91.5791 21.9374 91.9165 21.3223 92.529 20.6749C94.008 19.129 95.3646 17.4702 96.772 15.8552L96.6865 15.6778Z" fill="#3D4346"/>
    <path d="M40.709 24.3288V8.3261C41.9269 8.3261 43.1541 8.31227 44.3812 8.35144C44.4945 8.35144 44.6909 8.71315 44.6909 8.90667C44.6724 13.6112 44.6147 18.3157 44.6123 23.0202C44.6123 24.3265 44.6863 24.3265 43.3528 24.3288H40.709Z" fill="#3D4346"/>
    <path d="M87.1719 24.2619V12.7034H90.9065V24.2619H87.1719Z" fill="#3D4346"/>
    <path d="M89.0072 8.31934C89.4694 8.29286 89.9328 8.30057 90.3938 8.34238C90.581 8.37233 90.7289 8.65341 90.8907 8.82159C90.9046 8.83541 90.8907 8.86767 90.8907 8.8907C91.0155 11.0333 91.0155 11.0333 88.8108 11.0356C87.1584 11.0356 87.1561 11.0356 87.1584 9.51275C87.1584 8.14886 87.0613 8.33086 88.3624 8.31704C88.5866 8.31474 88.7969 8.31704 89.0072 8.31934Z" fill="#3D4346"/>
</svg>