<svg xmlns="http://www.w3.org/2000/svg" width="96" height="38" viewBox="0 0 96 38" fill="none">
    <g clip-path="url(#clip0_646_13035)">
        <path d="M26.5113 33.797L25.049 32.2865L28.1007 29.1342L29.5629 30.6447L26.5113 33.797ZM9.47285 35.8329V33.1403H22.3788V35.8329H9.47285ZM3.62384 10.1547L2.22517 8.64422L5.27682 5.49192L6.73907 7.0024L3.62384 10.1547ZM7.81987 8.05317L9.28212 9.56365L6.23046 12.716L4.76821 11.2055L7.81987 8.05317ZM8.70993 15.3429L7.24768 13.8324L10.2993 10.6801L11.7616 12.1906L8.70993 15.3429ZM19.8993 14.3578L17.9921 16.328L15.894 14.1608L13.796 16.328L11.8887 14.3578L15.894 10.2204L19.8993 14.3578ZM21.4887 10.6801L24.5404 13.8324L23.0781 15.3429L20.0265 12.1906L21.4887 10.6801ZM25.1126 6.93672L26.5748 5.42624L29.6265 8.57855L28.1642 10.089L25.1126 6.93672ZM27.0834 11.2711L25.6212 12.7816L22.5695 9.62932L24.0318 8.11884L27.0834 11.2711ZM22.5695 29.7253L25.6212 26.573L27.0834 28.0834L24.0318 31.2358L22.5695 29.7253ZM13.9868 27.0984L11.8887 24.9311L13.796 22.9609L15.894 25.1282L17.9921 22.9609L19.8993 24.9311L17.8013 27.0984L22.1245 31.5641H9.66358L13.9868 27.0984ZM11.7616 27.0984L10.2993 28.6088L7.24768 25.4565L8.70993 23.946L11.7616 27.0984ZM14.8132 19.6116L13.796 20.6624L12.7788 19.6116L13.796 18.5609L14.8132 19.6116ZM15.894 22.8296L14.8768 21.7788L15.894 20.7281L16.9113 21.7788L15.894 22.8296ZM19.0093 19.6116L17.9921 20.6624L16.9748 19.6116L17.9921 18.5609L19.0093 19.6116ZM20.0265 27.0984L23.0781 23.946L24.5404 25.4565L21.4887 28.6088L20.0265 27.0984ZM22.3152 16.8534V22.4356L20.9801 23.8147L19.0728 21.8445L21.1709 19.6773L19.0728 17.5101L20.9801 15.5399L22.3152 16.8534ZM15.894 16.3936L16.9113 17.4444L15.894 18.4952L14.8768 17.4444L15.894 16.3936ZM10.8079 15.4742L12.7152 17.4444L10.5536 19.6116L12.6517 21.7788L10.7444 23.749L9.40927 22.3699V16.7877L10.8079 15.4742ZM6.73907 32.2865L5.27682 33.797L2.22517 30.6447L3.68742 29.1342L6.73907 32.2865ZM4.70464 28.0178L6.16689 26.5073L9.21854 29.6596L7.75629 31.1701L4.70464 28.0178ZM31.7881 30.6447L23.9046 22.4356V16.7877L31.7881 8.64422L26.5113 3.19336L18.8821 11.0741L15.894 7.92182L12.906 11.0741L5.27682 3.19336L0.82649 7.79047L0 8.64422L7.88344 16.7877V22.4356L0 30.579L5.27682 36.0299L7.88344 33.3373V37.4747H23.9046V33.3373L26.5113 36.0299L31.7881 30.6447Z" fill="#3D4346"/>
        <path d="M95.6186 25.1936V8.11865H77.8809V25.1936H83.0941V12.5844H90.4054V25.128H95.6186V25.1936Z" fill="#3D4346"/>
        <path d="M75.8457 8.11865H69.9331L66.6271 12.5844L63.3212 8.11865H57.4086L63.7026 16.5248L57.1543 25.1936H63.0669L66.6271 20.4652L70.1874 25.1936H76.1L69.6152 16.5248L75.8457 8.11865Z" fill="#3D4346"/>
        <path d="M55.374 25.1936V8.11865H50.2879L45.7105 14.8173L41.133 8.11865H36.0469V25.1936H41.0058V15.8024L45.4561 22.2384H45.9648L50.4151 15.8024V25.1936H55.374Z" fill="#3D4346"/>
        <path d="M37.3201 29.2654L36.9386 30.5132H37.7651L37.3201 29.2654ZM38.083 31.6953L37.9558 31.2356H36.6843L36.5572 31.6953H35.6035L36.8115 28.4116H37.8287L39.0366 31.6953H38.083Z" fill="#3D4346"/>
        <path d="M39.5449 31.6953V28.4116H41.8972V29.134H40.3714V31.6953H39.5449Z" fill="#3D4346"/>
        <path d="M44.4405 29.5281C44.4405 29.331 44.2498 29.1997 44.059 29.1997H43.4233V29.9221H44.059C44.2498 29.8564 44.4405 29.7251 44.4405 29.5281ZM42.5332 31.6953V28.4116H44.1226C44.8219 28.4116 45.2034 28.937 45.2034 29.5281C45.2034 30.1191 44.8219 30.6445 44.1226 30.6445H43.3597V31.7609H42.5332V31.6953Z" fill="#3D4346"/>
        <path d="M48.254 30.0537C48.254 29.5283 47.9361 29.0686 47.3639 29.0686C46.8553 29.0686 46.4738 29.4626 46.4738 30.0537C46.4738 30.5791 46.7917 31.0388 47.3639 31.0388C47.9361 30.9731 48.254 30.5791 48.254 30.0537ZM45.7109 30.0537C45.7109 29.0686 46.4738 28.3462 47.4275 28.3462C48.3811 28.3462 49.1441 29.0686 49.1441 30.0537C49.1441 31.0388 48.4447 31.7612 47.4275 31.7612C46.4103 31.7612 45.7109 31.0388 45.7109 30.0537Z" fill="#3D4346"/>
        <path d="M49.7793 31.6953V28.4116H50.6058V31.6953H49.7793Z" fill="#3D4346"/>
        <path d="M53.5307 31.6953V30.3818H52.1956V31.6953H51.3691V28.4116H52.1956V29.6594H53.5307V28.4116H54.3572V31.6953H53.5307Z" fill="#3D4346"/>
        <path d="M56.0749 30.9729H57.3465V29.134H56.52L56.3928 30.1191C56.3928 30.5132 56.2657 30.7758 56.0749 30.9729ZM54.9941 30.9729C55.312 30.9072 55.5028 30.7759 55.5663 30.0534L55.7571 28.4116H58.1094V30.9729H58.4908V32.352H57.6643V31.7609H55.8842V32.352H55.0577V30.9729H54.9941Z" fill="#3D4346"/>
        <path d="M58.7452 31.4985L59.0631 30.8418C59.1902 30.9074 59.3174 30.9731 59.4446 30.9731C59.6353 30.9731 59.7624 30.9074 59.826 30.7104L58.6816 28.3462H59.6353L60.3346 29.8567L61.034 28.3462H61.9876L60.7161 30.9731C60.5253 31.3672 60.2075 31.6955 59.6353 31.6955C59.2538 31.7612 58.9359 31.6955 58.7452 31.4985Z" fill="#3D4346"/>
        <path d="M62.1777 30.0537C62.1777 29.0029 62.9406 28.3462 63.8943 28.3462C64.6572 28.3462 65.1022 28.8059 65.293 29.1999L64.5936 29.5283C64.4665 29.2656 64.2122 29.0686 63.8943 29.0686C63.3857 29.0686 63.0042 29.4626 63.0042 30.0537C63.0042 30.5791 63.3857 31.0388 63.8943 31.0388C64.2122 31.0388 64.4665 30.8418 64.5936 30.5791L65.293 30.9074C65.1022 31.3015 64.6572 31.7612 63.8943 31.7612C62.9406 31.7612 62.1777 31.0388 62.1777 30.0537Z" fill="#3D4346"/>
        <path d="M66.6283 31.6953V29.134H65.7383V28.4116H68.3449V29.134H67.4548V31.6953H66.6283Z" fill="#3D4346"/>
        <path d="M70.8242 29.5281C70.8242 29.331 70.6335 29.1997 70.4427 29.1997H69.807V29.9221H70.4427C70.6335 29.8564 70.8242 29.7251 70.8242 29.5281ZM68.9805 31.6953V28.4116H70.5699C71.2692 28.4116 71.6507 28.937 71.6507 29.5281C71.6507 30.1191 71.2692 30.6445 70.5699 30.6445H69.807V31.7609H68.9805V31.6953Z" fill="#3D4346"/>
        <path d="M72.2852 31.6953V28.4116H73.1116V31.6953H72.2852Z" fill="#3D4346"/>
        <path d="M75.2741 29.2656L74.8926 30.5134H75.7191L75.2741 29.2656ZM76.1006 31.6955L75.9734 31.2358H74.7019L74.5747 31.6955H73.6211L74.829 28.4119H75.8463L77.0542 31.6955H76.1006Z" fill="#3D4346"/>
        <path d="M77.3086 30.9731C77.6265 30.9731 77.8172 30.7761 77.8808 30.0537L78.0715 28.4119H80.4238V31.6955H79.5973V29.1343H78.8344L78.7073 30.1194C78.5801 31.4328 78.0079 31.7612 77.3086 31.7612V30.9731Z" fill="#3D4346"/>
        <path d="M82.0765 30.2505V30.9729H82.7123C82.903 30.9729 83.0937 30.8415 83.0937 30.6445C83.0937 30.4475 82.903 30.3161 82.7123 30.3161H82.0765V30.2505ZM82.0765 28.4116V29.5281H82.8394C83.5387 29.5281 83.9202 30.0534 83.9202 30.6445C83.9202 31.2356 83.5387 31.7609 82.8394 31.7609H81.25V28.4773H82.0765V28.4116Z" fill="#3D4346"/>
        <path d="M86.7807 31.6953V30.3818H85.4456V31.6953H84.6191V28.4116H85.4456V29.6594H86.7807V28.4116H87.6072V31.6953H86.7807Z" fill="#3D4346"/>
        <path d="M88.3711 31.6955V28.4119H89.1976V30.3821L90.4691 28.4119H91.2956V31.6955H90.4691V29.6597L89.134 31.6955H88.3711Z" fill="#3D4346"/>
        <path d="M93.6478 28.2803C93.3299 28.2803 93.012 28.0832 92.8213 27.8206L93.1392 27.5579C93.2663 27.7549 93.4571 27.8206 93.6478 27.8206C93.8385 27.8206 94.0293 27.6892 94.1564 27.5579L94.4743 27.8206C94.2836 28.0832 94.0293 28.2803 93.6478 28.2803ZM92.1855 31.6953V28.4116H93.012V30.3818L94.2836 28.4116H95.1101V31.6953H94.2836V29.6594L92.9485 31.6953H92.1855Z" fill="#3D4346"/>
        <path d="M37.9558 37.4089L37.2565 36.2925L36.5572 37.4089H35.6035L36.7479 35.7014L35.6671 34.0596H36.6207L37.2565 35.1103L37.8923 34.0596H38.8459L37.8287 35.6357L38.9095 37.3432H37.9558V37.4089Z" fill="#3D4346"/>
        <path d="M41.7062 35.7671C41.7062 35.2417 41.3883 34.782 40.8162 34.782C40.3076 34.782 39.9261 35.176 39.9261 35.7671C39.9261 36.2925 40.244 36.7522 40.8162 36.7522C41.3248 36.6865 41.7062 36.2925 41.7062 35.7671ZM39.0996 35.7671C39.0996 34.782 39.8625 34.0596 40.8162 34.0596C41.7698 34.0596 42.5327 34.782 42.5327 35.7671C42.5327 36.7522 41.8334 37.4746 40.8162 37.4746C39.8625 37.4746 39.0996 36.7522 39.0996 35.7671Z" fill="#3D4346"/>
        <path d="M42.8507 36.6867C43.1686 36.6867 43.3593 36.4897 43.4229 35.7673L43.6136 34.1255H45.9659V37.4091H45.1394V34.8479H44.3129L44.1858 35.833C44.0586 37.1465 43.4864 37.4748 42.7871 37.4748V36.6867H42.8507Z" fill="#3D4346"/>
        <path d="M47.6813 36.6211H48.9528V34.7822H48.1263L47.9992 35.7673C47.9992 36.227 47.872 36.4897 47.6813 36.6211ZM46.6641 36.6867C46.9819 36.6211 47.1727 36.4897 47.2362 35.7673L47.427 34.1255H49.7793V36.6867H50.0972V38.0002H49.2707V37.4091H47.4905V38.0002H46.6641V36.6867Z" fill="#3D4346"/>
        <path d="M50.6699 37.4091V34.1255H51.4964V36.0957L52.7679 34.1255H53.5944V37.4091H52.7679V35.3733L51.4964 37.4091H50.6699Z" fill="#3D4346"/>
        <path d="M56.5824 37.4089V36.0954H55.3109V37.4089H54.4844V34.1252H55.3109V35.373H56.5824V34.0596H57.4089V37.3432H56.5824V37.4089Z" fill="#3D4346"/>
        <path d="M58.2363 37.4091V34.1255H60.5887V34.8479H59.0628V37.4091H58.2363Z" fill="#3D4346"/>
    </g>
    <defs>
        <clipPath id="clip0_646_13035">
            <rect width="96" height="38" fill="white"/>
        </clipPath>
    </defs>
</svg>