<svg xmlns="http://www.w3.org/2000/svg" width="122" height="28" viewBox="0 0 122 28" fill="none">
    <g clip-path="url(#clip0_646_12946)">
        <path d="M50.8218 6.10386V21.8959H48.1337V9.50353H48.0979L43.2952 21.8959H41.5031L36.5929 9.50353H36.557V21.8959H34.084V6.10386H37.9548L42.3992 17.8016H42.4708L47.166 6.10386H50.8218ZM53.044 7.31019C53.044 6.87153 53.1874 6.50597 53.5099 6.21353C53.8325 5.92108 54.1909 5.77486 54.621 5.77486C55.0869 5.77486 55.4812 5.92108 55.7679 6.21353C56.0547 6.50597 56.2339 6.87153 56.2339 7.31019C56.2339 7.74886 56.0905 8.11442 55.7679 8.40686C55.4454 8.6993 55.0869 8.84553 54.621 8.84553C54.1551 8.84553 53.7967 8.6993 53.5099 8.40686C53.2232 8.07786 53.044 7.7123 53.044 7.31019ZM55.9471 10.5636V21.8959H53.3307V10.5636H55.9471ZM63.868 19.9584C64.2623 19.9584 64.6924 19.8853 65.1583 19.666C65.6243 19.4832 66.0544 19.2273 66.4486 18.9349V21.4206C66.0185 21.6765 65.5526 21.8593 65.015 21.969C64.4773 22.0786 63.9039 22.1517 63.2587 22.1517C61.6101 22.1517 60.2839 21.64 59.2804 20.5799C58.241 19.5197 57.7392 18.1672 57.7392 16.5587C57.7392 14.731 58.2768 13.2322 59.3162 12.0624C60.3556 10.8926 61.8251 10.3077 63.7605 10.3077C64.2623 10.3077 64.7641 10.3809 65.23 10.4905C65.7318 10.6002 66.126 10.783 66.4128 10.9292V13.4881C66.0185 13.1956 65.5884 12.9397 65.1942 12.7935C64.7641 12.6473 64.334 12.5376 63.9039 12.5376C62.8645 12.5376 62.0401 12.8666 61.395 13.5612C60.7499 14.2557 60.4631 15.1696 60.4631 16.3394C60.4631 17.4726 60.7857 18.3865 61.395 19.008C62.0043 19.6294 62.8287 19.9584 63.868 19.9584ZM73.8677 10.3809C74.0828 10.3809 74.262 10.3809 74.4412 10.4174C74.6204 10.454 74.7638 10.4905 74.8713 10.5271V13.2322C74.7279 13.1225 74.5487 13.0129 74.262 12.9397C73.9753 12.8666 73.6885 12.7935 73.2943 12.7935C72.6492 12.7935 72.1115 13.086 71.6814 13.6343C71.2513 14.1826 71.0005 15.0234 71.0005 16.1932V21.8959H68.384V10.5636H71.0005V12.3549H71.0363C71.2872 11.7334 71.6456 11.2582 72.1115 10.8926C72.6133 10.5636 73.1868 10.3809 73.8677 10.3809ZM75.0147 16.4125C75.0147 14.5482 75.5523 13.0494 76.5558 11.9527C77.5952 10.8561 79.0289 10.3077 80.8568 10.3077C82.5772 10.3077 83.9391 10.8195 84.9068 11.8796C85.8746 12.9397 86.3763 14.3654 86.3763 16.1566C86.3763 17.9844 85.8387 19.4466 84.8352 20.5433C83.7958 21.64 82.398 22.1883 80.6059 22.1883C78.8855 22.1883 77.5236 21.6765 76.52 20.653C75.5164 19.5929 75.0147 18.1672 75.0147 16.4125ZM77.7386 16.3029C77.7386 17.4726 77.9895 18.3865 78.5271 19.008C79.0647 19.6294 79.8174 19.9584 80.7851 19.9584C81.717 19.9584 82.4696 19.666 82.9714 19.008C83.4732 18.3865 83.7241 17.4726 83.7241 16.2297C83.7241 15.0234 83.4732 14.1095 82.9714 13.4515C82.4696 12.8301 81.717 12.5011 80.8209 12.5011C79.8532 12.5011 79.1364 12.8301 78.5988 13.4881C77.9895 14.1826 77.7386 15.0965 77.7386 16.3029ZM90.283 13.5612C90.283 13.9267 90.3906 14.2557 90.6414 14.4751C90.8923 14.6944 91.3941 14.9503 92.2185 15.2793C93.2579 15.718 94.0105 16.1932 94.4048 16.705C94.8349 17.2533 95.0499 17.8747 95.0499 18.6424C95.0499 19.7025 94.6557 20.5433 93.8313 21.2013C93.0428 21.8593 91.9317 22.1517 90.5698 22.1517C90.1038 22.1517 89.6021 22.0786 89.0286 21.969C88.4551 21.8593 87.9892 21.7131 87.5949 21.5303V18.8983C88.0609 19.2273 88.5985 19.5197 89.1361 19.7025C89.6737 19.8853 90.1755 19.995 90.6414 19.995C91.2149 19.995 91.6808 19.9219 91.9317 19.7391C92.2185 19.5563 92.3618 19.3004 92.3618 18.8983C92.3618 18.5327 92.2185 18.2403 91.9317 17.9479C91.645 17.692 91.0715 17.3995 90.283 17.0705C89.3153 16.6684 88.6343 16.1932 88.2401 15.6814C87.8458 15.1696 87.6308 14.5116 87.6308 13.7074C87.6308 12.6839 88.025 11.8431 88.8135 11.1851C89.602 10.5271 90.6414 10.1981 91.8959 10.1981C92.2901 10.1981 92.7202 10.2346 93.1862 10.3443C93.6521 10.454 94.0822 10.5636 94.4048 10.6733V13.2687C94.0464 13.0494 93.6521 12.8301 93.1862 12.6473C92.7202 12.4645 92.2543 12.3914 91.8242 12.3914C91.3224 12.3914 90.9282 12.5011 90.6773 12.6839C90.4264 12.9397 90.283 13.1956 90.283 13.5612ZM96.161 16.4125C96.161 14.5482 96.6986 13.0494 97.7022 11.9527C98.7416 10.8561 100.175 10.3077 102.003 10.3077C103.723 10.3077 105.085 10.8195 106.053 11.8796C107.021 12.9397 107.523 14.3654 107.523 16.1566C107.523 17.9844 106.985 19.4466 105.981 20.5433C104.942 21.64 103.544 22.1883 101.752 22.1883C100.032 22.1883 98.6699 21.6765 97.6663 20.653C96.6986 19.5929 96.161 18.1672 96.161 16.4125ZM98.8849 16.3029C98.8849 17.4726 99.1358 18.3865 99.6734 19.008C100.211 19.6294 100.964 19.9584 101.931 19.9584C102.863 19.9584 103.616 19.666 104.118 19.008C104.62 18.3865 104.87 17.4726 104.87 16.2297C104.87 15.0234 104.62 14.1095 104.118 13.4515C103.616 12.8301 102.863 12.5011 101.967 12.5011C101 12.5011 100.283 12.8301 99.7451 13.4881C99.1717 14.1826 98.8849 15.0965 98.8849 16.3029ZM116.232 12.757H112.325V21.8959H109.673V12.757H107.809V10.5636H109.673V8.99175C109.673 7.82197 110.067 6.83497 110.82 6.0673C111.573 5.29964 112.54 4.93408 113.723 4.93408C114.046 4.93408 114.332 4.97064 114.583 4.97064C114.834 4.97064 115.049 5.04375 115.229 5.11686V7.41986C115.157 7.3833 114.978 7.31019 114.763 7.23708C114.548 7.16397 114.297 7.12742 114.01 7.12742C113.472 7.12742 113.042 7.31019 112.755 7.63919C112.469 7.96819 112.325 8.51653 112.325 9.17453V10.5271H116.232V7.96819L118.848 7.16397V10.5271H121.501V12.7204H118.848V18.021C118.848 18.7155 118.992 19.1907 119.207 19.4832C119.458 19.7756 119.852 19.9219 120.39 19.9219C120.533 19.9219 120.712 19.8853 120.927 19.8122C121.142 19.7391 121.322 19.666 121.465 19.5563V21.7496C121.286 21.8593 121.035 21.9324 120.641 22.0055C120.246 22.0786 119.888 22.1152 119.494 22.1152C118.383 22.1152 117.558 21.8227 117.021 21.2379C116.483 20.653 116.196 19.7391 116.196 18.5327L116.232 12.757Z" fill="#3D4346"/>
        <path d="M12.7577 0.840088H0.5V13.3421H12.7577V0.840088Z" fill="#3D4346"/>
        <path d="M26.3065 0.840088H14.0488V13.3421H26.3065V0.840088Z" fill="#3D4346"/>
        <path d="M12.7577 14.6582H0.5V27.1602H12.7577V14.6582Z" fill="#3D4346"/>
        <path d="M26.3065 14.658H14.0488V27.16H26.3065V14.658Z" fill="#3D4346"/>
    </g>
    <defs>
        <clipPath id="clip0_646_12946">
            <rect width="121" height="28" fill="white" transform="translate(0.5)"/>
        </clipPath>
    </defs>
</svg>