<svg xmlns="http://www.w3.org/2000/svg" width="132" height="28" viewBox="0 0 132 28" fill="none">
    <path d="M14.3529 28C22.2799 28 28.7059 21.732 28.7059 14C28.7059 6.26801 22.2799 0 14.3529 0C6.42603 0 0 6.26801 0 14C0 21.732 6.42603 28 14.3529 28Z" fill="#3D4346"/>
    <path d="M7.66608 18.5356C6.11784 18.7902 3.60725 17.9247 3.31313 16.1984C3.01902 14.4721 5.10606 12.85 6.6543 12.5931C7.45556 12.4612 8.27731 12.6477 8.93877 13.1116C9.60022 13.5755 10.0472 14.2788 10.1814 15.0669C10.3155 15.8549 10.1259 16.663 9.65421 17.3136C9.1825 17.9641 8.46734 18.4037 7.66608 18.5356ZM6.84019 13.6761C5.69195 13.8635 4.25194 15.0784 4.41665 16.0133C4.58135 16.9482 6.3343 17.6331 7.47547 17.448C7.97631 17.3557 8.42038 17.0739 8.71223 16.6631C9.00409 16.2523 9.12046 15.7453 9.03634 15.2511C8.95222 14.7568 8.67432 14.3148 8.26235 14.0198C7.85039 13.7249 7.33722 13.6007 6.83312 13.6738L6.84019 13.6761Z" fill="white"/>
    <path d="M18.6359 13.6231C18.6898 13.9424 18.8072 14.2481 18.9815 14.5227C19.1558 14.7972 19.3834 15.0353 19.6514 15.2232C19.9194 15.4111 20.2224 15.5451 20.5432 15.6176C20.8639 15.69 21.1961 15.6996 21.5206 15.6456C21.8268 15.5918 22.1238 15.496 22.4029 15.3609C22.7072 15.0466 22.9387 14.6712 23.0815 14.2606C23.2243 13.85 23.2751 13.4138 23.2304 12.9821C23.1857 12.5503 23.0466 12.1332 22.8225 11.7594C22.5984 11.3855 22.2948 11.0637 21.9323 10.8161C21.5236 10.7375 21.1043 10.7282 20.6923 10.7884C20.368 10.8417 20.0576 10.9573 19.7787 11.1286C19.4999 11.2999 19.2581 11.5236 19.0671 11.7868C18.8761 12.05 18.7398 12.3477 18.6658 12.6628C18.5918 12.9778 18.5816 13.3042 18.6359 13.6231Z" fill="white"/>
    <path d="M22.0942 16.1081C21.2932 16.2407 20.4715 16.0549 19.8099 15.5916C19.1482 15.1284 18.7007 14.4256 18.5659 13.6379C18.4311 12.8502 18.62 12.0421 19.0911 11.3913C19.5621 10.7406 20.2767 10.3005 21.0777 10.168C22.6283 9.91342 25.1389 10.7812 25.4306 12.5052C25.7224 14.2291 23.6424 15.8536 22.0942 16.1081ZM21.2659 11.2486C20.7573 11.3324 20.3034 11.6114 20.004 12.0244C19.7046 12.4373 19.5843 12.9503 19.6695 13.4504C19.7546 13.9506 20.0384 14.397 20.4582 14.6915C20.8781 14.9859 21.3997 15.1043 21.9083 15.0205C23.0565 14.8331 24.4965 13.6182 24.3318 12.6833C24.1671 11.7485 22.4142 11.0635 21.273 11.2486H21.2659Z" fill="white"/>
    <path d="M22.8247 12.9331C22.86 13.1391 22.8859 13.3427 22.907 13.5464C23.0299 14.8082 22.8663 16.0812 22.428 17.2733C21.9898 18.4655 21.2879 19.547 20.3729 20.4399C20.309 20.5074 20.2414 20.5715 20.1706 20.632C19.769 21.0024 19.3316 21.3333 18.8647 21.6201C17.6563 22.3678 16.2793 22.8113 14.8553 22.9114C13.4313 23.0115 12.0041 22.7651 10.7 22.194C10.6129 22.1569 10.5282 22.1176 10.4459 22.0783C9.96051 21.8495 9.49874 21.5752 9.06701 21.2591C7.41022 20.069 6.23765 18.3384 5.75879 16.3764C5.71173 16.1797 5.66702 15.9761 5.63172 15.7702C5.28863 13.5439 5.84937 11.2742 7.1929 9.45093C8.53644 7.62767 10.5551 6.39705 12.8131 6.02466C15.0711 5.65226 17.3875 6.16796 19.2623 7.46044C21.1371 8.75293 22.42 10.7186 22.8341 12.9331H22.8247Z" fill="white"/>
    <path d="M14.2238 21.9096C18.4679 21.9096 21.9085 18.5259 21.9085 14.3519C21.9085 10.1779 18.4679 6.79419 14.2238 6.79419C9.97962 6.79419 6.53906 10.1779 6.53906 14.3519C6.53906 18.5259 9.97962 21.9096 14.2238 21.9096Z" fill="#3D4346"/>
    <g opacity="0.4">
        <path opacity="0.4" d="M18.3063 7.94873C19.8338 9.15749 20.8339 10.8948 21.1016 12.8049C21.3694 14.7151 20.8846 16.6537 19.7466 18.2239C18.6085 19.794 16.9033 20.877 14.98 21.2511C13.0566 21.6253 11.0605 21.2622 9.40039 20.2363C10.216 20.8817 11.1571 21.3564 12.166 21.6313C13.1748 21.9062 14.2302 21.9755 15.2672 21.8349C16.3043 21.6943 17.3012 21.3468 18.1968 20.8137C19.0924 20.2806 19.8678 19.5732 20.4754 18.7348C21.0831 17.8964 21.5101 16.9448 21.7304 15.9383C21.9507 14.9318 21.9595 13.8916 21.7564 12.8816C21.5533 11.8716 21.1425 10.9131 20.5492 10.0648C19.9559 9.21659 19.1927 8.49649 18.3063 7.94873Z" fill="#3D4346"/>
    </g>
    <path d="M10.1392 20.7548C8.61158 19.546 7.61156 17.8088 7.3438 15.8986C7.07604 13.9884 7.5608 12.0499 8.69884 10.4797C9.83687 8.90952 11.5421 7.82653 13.4655 7.4524C15.3889 7.07828 17.3849 7.44132 19.045 8.4672C18.2294 7.8218 17.2883 7.34709 16.2794 7.07221C15.2706 6.79732 14.2152 6.72806 13.1782 6.86866C12.1411 7.00926 11.1442 7.35677 10.2486 7.88986C9.35304 8.42295 8.57764 9.13038 7.97001 9.96875C7.36237 10.8071 6.93529 11.7588 6.71501 12.7653C6.49473 13.7718 6.4859 14.8119 6.68901 15.8219C6.89213 16.8319 7.30293 17.7904 7.89622 18.6387C8.4895 19.4869 9.25275 20.207 10.1392 20.7548Z" fill="#3D4346"/>
    <path d="M18.0526 17.2628C15.7199 18.154 13.2262 18.5651 10.7255 18.4707C9.93495 18.443 9.16553 18.0079 8.56788 17.4502C7.97568 16.9127 7.57136 16.2048 7.41261 15.4278C7.35257 15.0777 7.36451 14.7194 7.44777 14.374C7.53102 14.0286 7.68388 13.7031 7.8973 13.4169C8.32322 12.8121 8.97406 12.3965 9.70908 12.2598L16.9538 11.0658C17.6938 10.9585 18.447 11.1423 19.0502 11.5772C19.347 11.7797 19.5994 12.0386 19.7925 12.3387C19.9857 12.6388 20.1158 12.9739 20.175 13.3243C20.2832 14.109 20.1349 14.9073 19.7514 15.6036C19.3749 16.3302 18.7891 16.9828 18.0526 17.2628Z" fill="white"/>
    <g opacity="0.2">
        <path opacity="0.2" d="M20.6075 13.3242C20.6703 13.7035 20.6623 14.0909 20.584 14.4674C20.5073 14.8636 20.3734 15.247 20.1863 15.6059C19.8051 16.3302 19.2216 16.9828 18.4851 17.2604C17.1045 17.7899 15.6632 18.1513 14.1934 18.3365C14.3481 18.185 14.5403 18.0758 14.751 18.0194C15.5675 17.7742 18.6781 17.5775 19.5134 16.1682C20.3487 14.759 21.1745 13.0188 19.5745 11.7877C19.0897 11.4189 18.5268 11.1618 17.9275 11.0356C18.4883 11.0676 19.0284 11.2554 19.4851 11.5771C19.7814 11.7798 20.0334 12.0389 20.2261 12.339C20.4189 12.639 20.5486 12.9741 20.6075 13.3242Z" fill="white"/>
    </g>
    <path d="M12.0446 15.0044C12.128 15.3128 12.0837 15.6411 11.9214 15.9174C11.7591 16.1937 11.492 16.3955 11.1787 16.4784C10.8651 16.5605 10.5313 16.5169 10.2503 16.3573C9.96938 16.1976 9.76425 15.935 9.67987 15.6269C9.59647 15.3185 9.64076 14.9902 9.80306 14.7139C9.96537 14.4376 10.2324 14.2358 10.5457 14.1528C10.8593 14.0708 11.1931 14.1144 11.4741 14.274C11.755 14.4336 11.9602 14.6963 12.0446 15.0044Z" fill="#3D4346"/>
    <path d="M15.6649 14.6295C15.7663 14.609 15.8716 14.6177 15.968 14.6547C16.0644 14.6916 16.148 14.7552 16.2085 14.8378C16.2494 14.8957 16.3065 14.9407 16.3729 14.9674C16.4393 14.9941 16.5121 15.0013 16.5826 14.9882C16.6778 14.9687 16.7613 14.913 16.8151 14.8333C16.8688 14.7536 16.8884 14.6563 16.8696 14.5624C16.8583 14.5124 16.8367 14.4651 16.8061 14.4236C16.664 14.2268 16.4669 14.0747 16.2387 13.9857C16.0105 13.8967 15.761 13.8746 15.5204 13.9221C15.2797 13.9696 15.0582 14.0846 14.8826 14.2533C14.707 14.4219 14.5848 14.637 14.5308 14.8725C14.509 14.9658 14.5257 15.0638 14.5774 15.1449C14.629 15.2261 14.7113 15.2837 14.8061 15.3052C14.8573 15.3157 14.9102 15.3157 14.9614 15.3052C15.0312 15.2904 15.0952 15.2561 15.1456 15.2064C15.1961 15.1568 15.231 15.0939 15.2461 15.0252C15.2702 14.9268 15.3225 14.8373 15.3967 14.7671C15.4709 14.697 15.564 14.6493 15.6649 14.6295Z" fill="#3D4346"/>
    <path d="M10.9727 12.343L9.86917 12.5258C9.6038 11.2446 8.93638 10.0775 7.96094 9.18897L8.73035 8.39062C9.8798 9.44497 10.6641 10.8273 10.9727 12.343Z" fill="white"/>
    <path d="M17.1306 11.3272L16.027 11.51C15.8159 9.97839 16.099 8.42027 16.8364 7.05542L17.8294 7.56451C17.2008 8.71557 16.9564 10.0319 17.1306 11.3272Z" fill="white"/>
    <path d="M12.4444 5.61392C8.78794 6.21789 9.00438 7.23376 9.00438 7.23376C9.00438 7.23376 9.67497 7.57855 10.4491 8.74715C10.7334 9.14925 11.1565 9.43621 11.6397 9.55475C12.1236 9.68788 12.6312 9.71543 13.127 9.63549C13.6229 9.55555 14.0949 9.37004 14.5103 9.09194C14.9273 8.82569 15.2317 8.41941 15.3667 7.9488C15.7126 6.59508 16.2326 6.05359 16.2326 6.05359C16.2326 6.05359 16.1009 5.01227 12.4444 5.61392Z" fill="#3D4346"/>
    <g opacity="0.35">
        <g opacity="0.35">
            <path opacity="0.35" d="M15.3766 7.93016C15.7225 6.57644 16.2425 6.03726 16.2425 6.03726C16.2425 6.03726 16.1107 5.00983 12.4543 5.61379C10.9884 5.8452 10.1437 6.16222 9.65898 6.44453C9.52797 6.63165 9.42572 6.83671 9.35547 7.05313C9.35547 7.05313 12.8449 5.72949 14.3202 6.61809C15.7955 7.50668 13.1155 9.66106 11.3084 9.11726C10.7272 8.94371 10.8378 9.11726 11.2707 9.40883C11.3929 9.46531 11.5196 9.51175 11.6496 9.54768C12.1335 9.6808 12.6411 9.70836 13.1369 9.62842C13.6327 9.54848 14.1048 9.36297 14.5202 9.08487C14.9396 8.81594 15.2444 8.40513 15.3766 7.93016Z" fill="white"/>
        </g>
    </g>
    <path d="M13.1761 9.90185C12.6384 9.99289 12.0867 9.96362 11.562 9.81623C11.0122 9.68111 10.5323 9.3516 10.2138 8.89061C9.50789 7.80995 8.87731 7.47441 8.87261 7.4721L8.75732 7.40962L8.72673 7.28235C8.7142 7.18626 8.72126 7.08867 8.74752 6.9953C8.77378 6.90193 8.81871 6.81465 8.87967 6.73855C9.30791 6.12301 10.4914 5.65094 12.3973 5.33623C14.3032 5.02152 15.5808 5.08863 16.1879 5.53293C16.2703 5.58528 16.3414 5.6531 16.3971 5.73252C16.4529 5.81193 16.4921 5.90138 16.5126 5.99574L16.5291 6.12532L16.4373 6.2202C16.4373 6.2202 15.9667 6.74086 15.642 7.99045C15.4922 8.52753 15.1473 8.99191 14.6726 9.29557C14.2256 9.6041 13.7144 9.81118 13.1761 9.90185ZM9.31261 7.10185C9.85591 7.51281 10.3184 8.01783 10.6773 8.5921C10.9239 8.9398 11.2913 9.18674 11.7102 9.28631C12.1538 9.40472 12.6181 9.42735 13.0714 9.35266C13.5246 9.27797 13.9561 9.10771 14.3361 8.85359C14.6985 8.62476 14.9643 8.27455 15.0844 7.8678C15.2316 7.20793 15.5012 6.58037 15.8797 6.01656C15.682 5.84532 14.9526 5.4797 12.482 5.88698C10.1008 6.28036 9.48907 6.83574 9.33613 7.044L9.31261 7.08797V7.10185Z" fill="white"/>
    <g opacity="0.15">
        <g opacity="0.15">
            <path opacity="0.15" d="M7.93216 14.4791C8.00461 14.1994 8.12991 13.9357 8.30156 13.7016C8.47764 13.457 8.69678 13.2455 8.94861 13.0768C9.19946 12.9066 9.48417 12.7907 9.78392 12.7366L11.3039 12.4844C11.3524 12.4765 11.4022 12.4823 11.4475 12.5012C11.4927 12.5201 11.5316 12.5513 11.5595 12.5911C11.5873 12.6309 11.6031 12.6777 11.605 12.726C11.6068 12.7743 11.5946 12.8222 11.5698 12.8639C11.0074 13.8196 10.3933 15.326 10.158 17.5151C10.1554 17.5487 10.1459 17.5815 10.1302 17.6114C10.1145 17.6413 10.0928 17.6679 10.0665 17.6894C10.0402 17.711 10.0098 17.7272 9.97699 17.737C9.94422 17.7468 9.90976 17.75 9.87569 17.7465C9.84381 17.7435 9.81274 17.7348 9.78392 17.7211C9.45863 17.557 9.16037 17.3456 8.89921 17.094C8.38269 16.6305 8.02852 16.0181 7.88744 15.3446C7.84124 15.0561 7.85648 14.7614 7.93216 14.4791Z" fill="white"/>
        </g>
    </g>
    <path d="M46.021 14.9963L47.6556 17.7352C47.7599 17.9172 47.8172 18.1217 47.8221 18.3306C47.8163 18.6545 47.6829 18.9636 47.4499 19.1926C47.217 19.4217 46.9028 19.5529 46.5734 19.5587C46.351 19.5583 46.1326 19.4994 45.941 19.3882C45.7494 19.2769 45.5915 19.1174 45.4836 18.926L43.4479 15.294H41.5939V18.3306C41.5859 18.6603 41.4466 18.9738 41.206 19.2035C40.9653 19.4331 40.6426 19.5607 40.3073 19.5587C39.9773 19.5548 39.662 19.4242 39.4287 19.1947C39.1953 18.9652 39.0625 18.6551 39.0586 18.3306V9.15379C39.0586 8.782 39.2083 8.42533 39.4749 8.16174C39.7415 7.89815 40.1033 7.74909 40.4813 7.74712H44.6285C45.1139 7.70948 45.6023 7.76625 46.0654 7.91419C46.5286 8.06213 46.9577 8.29835 47.328 8.60935C47.6983 8.92036 48.0027 9.30006 48.2238 9.72678C48.4449 10.1535 48.5785 10.6189 48.6167 11.0963C48.6243 11.2376 48.6243 11.3792 48.6167 11.5206C48.6651 12.3069 48.4319 13.085 47.9578 13.72C47.4836 14.3549 46.7984 14.8064 46.021 14.9963ZM41.5939 9.94271V13.0984H44.2501C44.6765 13.1422 45.1031 13.0179 45.4365 12.7528C45.7699 12.4878 45.9828 12.1035 46.0286 11.6843C46.0324 11.6298 46.0324 11.5751 46.0286 11.5206C46.0286 11.3117 45.9866 11.105 45.9052 10.9122C45.8237 10.7193 45.7042 10.5443 45.5537 10.3969C45.4033 10.2496 45.2246 10.133 45.0282 10.0538C44.8318 9.97456 44.6214 9.93428 44.4091 9.93526H41.5863L41.5939 9.94271Z" fill="#3D4346"/>
    <path d="M57.0859 15.9267H51.7885C51.8679 16.5044 52.1696 17.0302 52.6314 17.3957C53.0932 17.7613 53.6799 17.9387 54.2708 17.8916C54.8563 17.8779 55.4309 17.7328 55.9508 17.4673C56.0893 17.3987 56.2422 17.3631 56.3973 17.3631C56.6443 17.3591 56.8832 17.4502 57.0629 17.6171C57.2425 17.784 57.3485 18.0134 57.3584 18.2563C57.3584 19.261 55.1637 19.6629 54.021 19.6629C52.8649 19.7259 51.7308 19.3347 50.8679 18.5755C50.0051 17.8162 49.4842 16.751 49.4198 15.6141C49.4122 15.4778 49.4122 15.3411 49.4198 15.2048C49.3996 14.636 49.494 14.0689 49.6975 13.5361C49.901 13.0033 50.2096 12.5153 50.6056 12.1003C51.0016 11.6853 51.4771 11.3514 52.0048 11.1178C52.5325 10.8842 53.102 10.7555 53.6805 10.7391H53.8772C54.7754 10.7185 55.6557 10.9874 56.384 11.5047C57.1122 12.0221 57.6485 12.7595 57.9108 13.6046C58.0548 14.0176 58.1389 14.4486 58.1605 14.8847C58.1616 15.0231 58.1344 15.1603 58.0806 15.2881C58.0268 15.416 57.9474 15.532 57.8472 15.6291C57.747 15.7263 57.628 15.8027 57.4972 15.8538C57.3665 15.9049 57.2266 15.9297 57.0859 15.9267ZM53.8545 12.5403C53.3236 12.5271 52.8077 12.7139 52.4123 13.0626C52.017 13.4113 51.7721 13.8954 51.7279 14.4158H55.981C55.9593 13.9025 55.7342 13.418 55.3536 13.066C54.9731 12.7141 54.4676 12.5227 53.9453 12.5328L53.8545 12.5403Z" fill="#3D4346"/>
    <path d="M67.3765 12.3767L64.8641 18.502C64.7379 18.8119 64.5208 19.0779 64.2405 19.2661C63.9602 19.4543 63.6293 19.5562 63.2899 19.5589C62.9488 19.5598 62.6152 19.4603 62.332 19.2733C62.0488 19.0863 61.829 18.8203 61.7007 18.5095L59.1807 12.3841C59.1281 12.256 59.0975 12.1202 59.0898 11.9822C59.0997 11.6861 59.2273 11.4056 59.4452 11.201C59.6632 10.9964 59.954 10.8841 60.2552 10.8881C60.4747 10.8886 60.689 10.9542 60.8699 11.0763C61.0509 11.1985 61.1901 11.3716 61.2694 11.5729L63.2899 16.8795L65.303 11.5952C65.3754 11.3804 65.5143 11.1932 65.7002 11.0598C65.8861 10.9264 66.1096 10.8534 66.3397 10.8509C66.6375 10.8469 66.9248 10.959 67.1389 11.1625C67.353 11.3661 67.4765 11.6447 67.4825 11.9376C67.4843 12.0903 67.4479 12.2411 67.3765 12.3767Z" fill="#3D4346"/>
    <path d="M76.1035 15.9268H70.8061C70.8855 16.5045 71.1872 17.0303 71.649 17.3958C72.1107 17.7614 72.6975 17.9388 73.2883 17.8917C73.8739 17.878 74.4485 17.7329 74.9684 17.4674C75.1069 17.3988 75.2598 17.3631 75.4148 17.3632C75.6619 17.3592 75.9008 17.4503 76.0804 17.6172C76.26 17.7841 76.3661 18.0135 76.376 18.2564C76.376 19.2611 74.1813 19.663 73.0385 19.663C71.8825 19.726 70.7484 19.3348 69.8855 18.5755C69.0227 17.8163 68.5018 16.7511 68.4374 15.6142C68.4297 15.4778 68.4297 15.3412 68.4374 15.2048C68.4172 14.6361 68.5116 14.069 68.7151 13.5362C68.9186 13.0034 69.2272 12.5154 69.6232 12.1004C70.0191 11.6854 70.4946 11.3515 71.0223 11.1179C71.5501 10.8842 72.1196 10.7556 72.698 10.7392H72.9024C73.7998 10.7177 74.6796 10.9864 75.4069 11.504C76.1341 12.0216 76.6686 12.7596 76.9284 13.6047C77.0796 14.0158 77.1639 14.4478 77.1781 14.8848C77.1791 15.0232 77.152 15.1604 77.0982 15.2882C77.0444 15.4161 76.9649 15.532 76.8647 15.6292C76.7645 15.7264 76.6456 15.8027 76.5148 15.8539C76.384 15.905 76.2442 15.9298 76.1035 15.9268ZM72.8645 12.5329C72.3336 12.5197 71.8177 12.7066 71.4224 13.0552C71.027 13.4039 70.7822 13.8881 70.7379 14.4085H74.9911C74.9804 14.1504 74.918 13.8969 74.8075 13.6625C74.6971 13.4281 74.5408 13.2175 74.3475 13.0426C74.1542 12.8677 73.9277 12.732 73.681 12.6433C73.4344 12.5545 73.1724 12.5145 72.9099 12.5255H72.8645V12.5329Z" fill="#3D4346"/>
    <path d="M85.7741 19.5585C85.4784 19.5585 85.1946 19.4435 84.9848 19.2385C84.7749 19.0335 84.656 18.7553 84.654 18.4644V14.3263C84.7109 13.9664 84.6213 13.5989 84.4046 13.3036C84.1879 13.0082 83.8615 12.8087 83.4962 12.7484C83.3533 12.7262 83.2077 12.7262 83.0648 12.7484C82.6798 12.7527 82.3012 12.8459 81.9594 13.0204C81.6176 13.1949 81.3223 13.4459 81.0972 13.7532V18.4868C81.0972 18.7789 80.9792 19.0591 80.7692 19.2657C80.5591 19.4722 80.2743 19.5883 79.9772 19.5883C79.8301 19.5893 79.6843 19.5617 79.548 19.5073C79.4117 19.4528 79.2877 19.3725 79.183 19.2709C79.0783 19.1693 78.9949 19.0484 78.9377 18.9152C78.8805 18.7819 78.8506 18.6389 78.8496 18.4942V11.9967C78.8516 11.8514 78.8828 11.708 78.9413 11.5746C78.9999 11.4412 79.0847 11.3205 79.191 11.2195C79.2972 11.1185 79.4227 11.0392 79.5602 10.9861C79.6977 10.933 79.8446 10.9072 79.9924 10.9101C80.2854 10.9101 80.5664 11.0246 80.7736 11.2284C80.9808 11.4322 81.0972 11.7085 81.0972 11.9967V12.1233C81.4749 11.7014 81.9411 11.3652 82.4637 11.1377C82.9863 10.9103 83.5529 10.7971 84.1243 10.8059C86.0163 10.8059 86.9244 11.8553 86.9244 13.5076V18.4868C86.9224 18.7796 86.8027 19.0597 86.5914 19.2661C86.3802 19.4725 86.0945 19.5883 85.7968 19.5883L85.7741 19.5585Z" fill="#3D4346"/>
    <path d="M96.1115 19.5586C95.9644 19.5596 95.8185 19.5321 95.6823 19.4776C95.546 19.4232 95.422 19.3429 95.3173 19.2413C95.2126 19.1397 95.1292 19.0188 95.072 18.8855C95.0148 18.7523 94.9849 18.6092 94.9839 18.4646V18.3827C94.5999 18.7944 94.1317 19.1213 93.6099 19.3419C93.0881 19.5626 92.5247 19.672 91.9568 19.6628C90.0648 19.6628 89.1719 18.6432 89.1719 16.9984V11.9597C89.1778 11.6668 89.3013 11.3882 89.5154 11.1846C89.7295 10.9811 90.0168 10.869 90.3146 10.873C90.607 10.875 90.8869 10.9901 91.0937 11.1934C91.3004 11.3968 91.4175 11.6721 91.4195 11.9597V16.1201C91.3605 16.4764 91.4477 16.8411 91.662 17.1342C91.8762 17.4272 92.2 17.6247 92.5622 17.6831C92.7102 17.7048 92.8607 17.7048 93.0087 17.6831C93.388 17.6753 93.7608 17.5845 94.0999 17.4171C94.439 17.2497 94.7358 17.01 94.9687 16.7155V11.9597C94.9707 11.814 95.0019 11.6702 95.0604 11.5364C95.1189 11.4026 95.2036 11.2814 95.3097 11.1798C95.4158 11.0782 95.5413 10.9982 95.6788 10.9443C95.8164 10.8904 95.9634 10.8636 96.1115 10.8656C96.4052 10.8656 96.6871 10.9798 96.8955 11.1834C97.1039 11.387 97.2219 11.6633 97.2239 11.9522V18.4869C97.2239 18.7797 97.1061 19.0607 96.8963 19.2684C96.6865 19.4762 96.4016 19.5939 96.1039 19.5959L96.1115 19.5586Z" fill="#3D4346"/>
    <path d="M106.639 15.9267H101.341C101.422 16.5036 101.725 17.0283 102.186 17.3935C102.647 17.7587 103.233 17.9369 103.824 17.8915C104.409 17.8778 104.984 17.7327 105.504 17.4673C105.642 17.3987 105.795 17.363 105.95 17.3631C106.197 17.359 106.436 17.4502 106.616 17.6171C106.795 17.784 106.901 18.0134 106.911 18.2562C106.911 19.261 104.716 19.6629 103.574 19.6629C102.418 19.7258 101.284 19.3347 100.421 18.5754C99.5579 17.8162 99.037 16.751 98.9725 15.6141C98.9649 15.4777 98.9649 15.3411 98.9725 15.2047C98.9523 14.6359 99.0467 14.0688 99.2502 13.536C99.4537 13.0033 99.7623 12.5153 100.158 12.1003C100.554 11.6852 101.03 11.3513 101.558 11.1177C102.085 10.8841 102.655 10.7554 103.233 10.7391H103.438C104.335 10.7189 105.214 10.988 105.941 11.5054C106.668 12.0229 107.203 12.7601 107.464 13.6045C107.615 14.0157 107.699 14.4477 107.713 14.8847C107.714 15.0231 107.687 15.1602 107.633 15.2881C107.58 15.416 107.5 15.5319 107.4 15.6291C107.3 15.7262 107.181 15.8026 107.05 15.8537C106.919 15.9049 106.779 15.9296 106.639 15.9267ZM103.407 12.5402C102.876 12.527 102.361 12.7139 101.965 13.0626C101.57 13.4112 101.325 13.8954 101.281 14.4158H105.534C105.523 14.1577 105.461 13.9042 105.35 13.6698C105.24 13.4354 105.084 13.2248 104.89 13.0499C104.697 12.875 104.47 12.7393 104.224 12.6506C103.977 12.5618 103.715 12.5218 103.453 12.5328L103.407 12.5402Z" fill="#3D4346"/>
    <path d="M110.453 19.648C110.167 19.648 109.888 19.5647 109.65 19.4085C109.412 19.2523 109.227 19.0302 109.118 18.7705C109.008 18.5107 108.98 18.2249 109.036 17.9491C109.091 17.6734 109.229 17.4201 109.431 17.2213C109.633 17.0225 109.891 16.8871 110.171 16.8322C110.452 16.7774 110.742 16.8055 111.006 16.9131C111.27 17.0207 111.496 17.2029 111.655 17.4367C111.814 17.6705 111.899 17.9453 111.899 18.2265C111.893 18.6017 111.739 18.9599 111.469 19.2253C111.199 19.4907 110.835 19.6423 110.453 19.648Z" fill="#3D4346"/>
    <path d="M123.092 19.5587C122.826 19.5589 122.566 19.4802 122.346 19.3328C122.126 19.1855 121.956 18.9763 121.859 18.7326L121.397 17.4674H116.296L115.812 18.7326C115.714 18.9787 115.542 19.1895 115.319 19.3371C115.096 19.4846 114.832 19.5619 114.563 19.5587C114.386 19.5578 114.212 19.5225 114.048 19.4551C113.885 19.3876 113.737 19.2892 113.613 19.1655C113.489 19.0418 113.39 18.8952 113.324 18.734C113.257 18.5729 113.223 18.4005 113.224 18.2265C113.216 18.0629 113.247 17.8998 113.315 17.7502L116.796 8.96035C116.949 8.57459 117.216 8.24284 117.563 8.00799C117.909 7.77313 118.32 7.64598 118.741 7.643C119.196 7.60768 119.651 7.71647 120.039 7.95347C120.427 8.19048 120.728 8.54328 120.898 8.96035L124.364 17.7502C124.418 17.9034 124.446 18.0643 124.447 18.2265C124.447 18.5798 124.304 18.9187 124.05 19.1685C123.796 19.4184 123.452 19.5587 123.092 19.5587ZM118.847 10.2405L116.985 15.2792H120.701L118.847 10.2405Z" fill="#3D4346"/>
    <path d="M127.352 19.5587C127.022 19.5568 126.705 19.4267 126.471 19.1969C126.238 18.967 126.106 18.6558 126.104 18.3307V8.87101C126.128 8.55702 126.272 8.26375 126.507 8.04981C126.742 7.83588 127.051 7.71704 127.371 7.71704C127.691 7.71704 128 7.83588 128.235 8.04981C128.47 8.26375 128.614 8.55702 128.639 8.87101V18.3307C128.631 18.6604 128.492 18.9738 128.251 19.2035C128.01 19.4332 127.688 19.5608 127.352 19.5587Z" fill="#3D4346"/>
</svg>