<svg xmlns="http://www.w3.org/2000/svg" width="24" height="24" viewBox="0 0 24 24" fill="none">
    <path d="M10 12.4998C10 12.1998 9.8 11.9998 9.5 11.9998H3.5C3.2 11.9998 3 12.1998 3 12.4998V17.4998C3 17.7998 3.2 17.9998 3.5 18.0998L9.5 18.7998C9.8 18.7998 10 18.5998 10 18.3998V12.4998ZM11.5 11.9998C11.2 11.9998 11 12.1998 11 12.4998V18.3998C11 18.6998 11.2 18.8998 11.5 18.9998L20.5 19.9998C20.8 19.9998 21 19.7998 21 19.5998V12.5998C21 12.2998 20.8 12.0998 20.5 12.0998L11.5 11.9998ZM10 4.69984C10 4.39984 9.8 4.19984 9.5 4.29984L3.5 4.99984C3.2 4.99984 3 5.19984 3 5.49984V10.4998C3 10.7998 3.2 10.9998 3.5 10.9998H9.5C9.8 10.9998 10 10.7998 10 10.4998V4.69984ZM11.5 4.09984C11.2 4.09984 11 4.39984 11 4.69984V10.5998C11 10.8998 11.2 11.0998 11.5 11.0998H20.5C20.8 11.0998 21 10.8998 21 10.5998V3.59984C21 3.29984 20.8 3.09984 20.5 3.19984L11.5 4.09984Z" fill="#25272F"/>
</svg>